<mxfile host="app.diagrams.net" modified="2024-04-10T11:24:54.662Z" agent="Mozilla/5.0 (Windows NT 10.0; Win64; x64; rv:124.0) Gecko/20100101 Firefox/124.0" etag="rnbyZ99I6j3Eaqi8t6w9" version="24.2.1" type="device">
  <diagram name="Page-1" id="OlKapIi3uWO2QsuCSNSb">
    <mxGraphModel dx="2049" dy="1160" grid="1" gridSize="10" guides="1" tooltips="1" connect="1" arrows="1" fold="1" page="1" pageScale="1" pageWidth="2000" pageHeight="1500" math="0" shadow="0">
      <root>
        <mxCell id="0" />
        <mxCell id="1" parent="0" />
        <mxCell id="RCYnNcVBV2A_GnD5C0OR-2" style="edgeStyle=none;curved=1;rounded=0;orthogonalLoop=1;jettySize=auto;html=1;fontSize=12;startSize=8;endSize=8;entryX=0;entryY=0.5;entryDx=0;entryDy=0;" edge="1" parent="1" source="859-qJpJI6VnqW7jw_TA-1" target="RCYnNcVBV2A_GnD5C0OR-4">
          <mxGeometry relative="1" as="geometry">
            <mxPoint x="425" y="750" as="targetPoint" />
          </mxGeometry>
        </mxCell>
        <mxCell id="859-qJpJI6VnqW7jw_TA-1" value="&lt;font style=&quot;font-size: 25px;&quot;&gt;Scan Image Input&lt;br&gt;&lt;/font&gt;" style="ellipse;whiteSpace=wrap;html=1;" parent="1" vertex="1">
          <mxGeometry x="80" y="676" width="155" height="148" as="geometry" />
        </mxCell>
        <mxCell id="RCYnNcVBV2A_GnD5C0OR-1" value="" style="shape=image;imageAspect=0;aspect=fixed;verticalLabelPosition=bottom;verticalAlign=top;image=data:image/jpeg,/9j/4AAQSkZJRgABAQEASABIAAD/4QA+RXhpZgAATU0AKgAAABgAAABIAAAAAQAAAEgAAAABAAIBGgAFAAAAAQAAAAgBGwAFAAAAAQAAABAAAAAA/9sAQwADAgIDAgIDAwMDBAMDBAUIBQUEBAUKBwcGCAwKDAwLCgsLDQ4SEA0OEQ4LCxAWEBETFBUVFQwPFxgWFBgSFBUU/9sAQwEDBAQFBAUJBQUJFA0LDRQUFBQUFBQUFBQUFBQUFBQUFBQUFBQUFBQUFBQUFBQUFBQUFBQUFBQUFBQUFBQUFBQU/8AAEQgEOAQ4AwEiAAIRAQMRAf/EAB8AAAEFAQEBAQEBAAAAAAAAAAABAgMEBQYHCAkKC//EALUQAAIBAwMCBAMFBQQEAAABfQECAwAEEQUSITFBBhNRYQcicRQygZGhCCNCscEVUtHwJDNicoIJChYXGBkaJSYnKCkqNDU2Nzg5OkNERUZHSElKU1RVVldYWVpjZGVmZ2hpanN0dXZ3eHl6g4SFhoeIiYqSk5SVlpeYmZqio6Slpqeoqaqys7S1tre4ubrCw8TFxsfIycrS09TV1tfY2drh4uPk5ebn6Onq8fLz9PX29/j5+v/EAB8BAAMBAQEBAQEBAQEAAAAAAAABAgMEBQYHCAkKC//EALURAAIBAgQEAwQHBQQEAAECdwABAgMRBAUhMQYSQVEHYXETIjKBCBRCkaGxwQkjM1LwFWJy0QoWJDThJfEXGBkaJicoKSo1Njc4OTpDREVGR0hJSlNUVVZXWFlaY2RlZmdoaWpzdHV2d3h5eoKDhIWGh4iJipKTlJWWl5iZmqKjpKWmp6ipqrKztLW2t7i5usLDxMXGx8jJytLT1NXW19jZ2uLj5OXm5+jp6vLz9PX29/j5+v/aAAwDAQACEQMRAD8A/KuigUgoAWgdKKBQAetANAooAB1oH8qKKACk9aUUUAFFGKBQADvRRSUAKBR60UUAApKUUDpQAUUetAoAKKKBxQAUUUUAHrRR60CgAooHSigAoFFFAAKPWgDrRjFABRQKBQAUgpaSgBaKPWigAozRQOlAAKSloFAAKB3oFGKAAdKKPWigAooooAPWijtQKAAUlFLQAUYoFFABiiiigAooFHagAoFHagGgAoFHrRQAUAUCigA7UUUYoAKKOlAoAMUlLRQAAUdqKKACgUCgDg0AAoozRQACiijtQAUDvRQKAD1ooozQAUCgd6KACiigcUAAFHrRRQAUUDpRQAZooooAKAKBR9KAEpRSUtAAKKKKAD1oFApBQAvrSUtGKAD1oHekpaACgUY4oxQAlKKKSgBcUUUDvQACgUUetABRR2ooAKKOlAoAKB0oooAKPWjrRQAUetJS0AFFHrRjigAooooABRRRQAUUetFAB60CgUetABQKKKAAUUUUAAooooAKKKKACgUYxQKADtR60UDvQACgUgpaACjrSUtABRjiiigAFFAooAPWj1oFAoABRQO9FABRRRQAdKKKKACj1oooATFKKKO1AAKKMUUAHrQOKKO1ABRRRQAlLSUooAKKOlFAAKBQKBQAUUUCgAoFFA7igAFIKUUUAFFAooABRRQO9ABR2oHeigBBSiigUAJS0CigAFIKUUUAFFAoHSgAoo9aBQAAcUdKO1FABSUtAoABRR+tAoAKPWiigAooooAKBRQKACj1oFFAAKO1AoFACUtAoFABR0oFIKAFooooABRR2oHegAoFFIKAFooHegCgAFFFFAAKMcUUUAFAoFAoAKKKKAAUCigd6AD1pKUUfrQAUUUUAFFAoHegAFFFHQGgAooooAKKKKACj1oFHrQAUCikFACjnNHrQKKAAUUUUAGKO1FA70AAoFHaigAo7UDvRQAUUUetABSDvS0YoAKOtFA5oAKQUtFABRQKKAAUUUUAApBSjvSCgBaBR0pB3oAUUUDvRQACjtRRQAA0UUfjQAlKKB3o70AANFAooAKBRQOlABQO9FFABR0oxRQAlKKSlzQAetFAooASl6UUUAAoFAooASloooAOxoApKXsaACgUUCgAHWgdKKKAAd6KKKACikpaAEpe3Wgd6BQAgpe1HrR60AJRRS9jQAUUnTNLQACkpRQKADpSCloFABRigdKO1ACUtA6UUAA4o7UUUAA70UCgdKACgUCigAo/WiigAzQKQUtAAKBR2o6UAFAooFAB2NApB3paACgUdqBQAUUCgUAAoFGKKAD1oxRQOKADFFFJQAooHFFFABQKO5ooABQBQO9A70AAFGKBRQAUdjQKKADtRRRQAUgpRQOlAB2oFHajNABRSUo70AHrRRQOKAACjFFFAAOKTNKKPWgAFJRS+tABRRQO9AABQBSUooAOlFJ2pRQACkpaKADFFAooAB6UdKKKAAUCj1o9aACgUUCgA6UUUUAHSij8aKADiiiigAo70UUAFFJRQAv40UUUAFFAooAPWj1oooABQBR+NAoAAaBwKB3oHSgAAoA60UUAFFFFAB+FA70CigAopPWl9aAAUlKOKBzQAdqKBRQAUUDoaKAACgUnaloAB6UA0CgUAFGK7H4QeBI/iV8Q9H8NyzvbJfSFPNjAyuFLZ5+lfb6/8E7vh21mgOt6/wCdgbpUliwT9DHQB+d9Ffe19/wTg8MSZ+xeMtVg9PtFrHJ/LbXPX3/BNmcZ+xePoG9BPprL+oc0AfFQFFfWd9/wTk8aRZ+x+JtCuR28wyxk/wDjhrnr7/gn/wDFO1DGH+xb3/rhf4J/76QUAfNn40te4X/7FXxhsd2PChugO9veQNn/AMfrnb/9mT4q6bnz/AmsHHeKDzf/AEHNAHmFLXV33wl8cabn7X4P123A6mTTZgPz21gXeiajYZFzYXVvjr5sLL/MUAUxR60YI4ooAKKBQB1oASloxRigA7UDpRRQAetFAooABzRRRQAUetIKPWgBaKKKADHBo7UUDvQAUCij1oABRSCloABQKBQBQAUlLR60AH40UUetACYpaPWgUAAooooAO1H8qBRQACikFKKAAUfhRQKACiijFAAKBR60DrQAgpfWgUetABQKO1JQAtHajpmigAoooFABRQKTFAC9qKBSUALmjH5UCjNAAKKBRQAetFHSgUAGKKKKAEpe1FJQAvrRRRQAUdqKSgBRRRQKAAUCjpR60AFFHrijFABRRRQAUUCigAHegUlAoAUd6M0UCgAoFFAoAB3pKUUlAC0UgpaAACiijsaAAUgpaBQADvRR2oAoAOxoo7UUAIKKUc0UAFH86KPWgAoo6UfpQAUCigUAFFFAoAPWgUlKO9AAOaO1FFAAOKKKO1AAKKKKACjrRR0oAKKKKACiiigA9aKKMUAFFFJ+tAC9AaOlAo9aAPWf2UJvJ/aA8HnOM3Lr+cT1+pdhd4OxjxX5W/sxQzj45+DrhIZGiS+Xe4UkKCpHJ/Gv1FHytkdaANwjHTvSZ4r5+/aA/aqt/ghqWlaY2kTancXcTTlkkCBEBx1PU5rzqx/4KKaG+PtXhzUY/Xy2jb/2YUAfY2eTQp9K+WLD/goJ4Gmx59lqVt/vQBv5Ma37D9uj4Z3f39Rnt+f+WlpIP6UAfRHSnqxA4NeKWP7XvwvvCAPE1rHn/nruT+YrobD9or4d6jjyfFmlvn/p6T/GgD0wSv8A3zj60yREmGJI0kHo6A/zrlrL4o+Fb8f6PrtjLn+5cIf61qweJ9Ln/wBXfQv/ALrg0ANvvB+gamCLzQdLus9fOso2/mtc9e/Av4cajn7T4E8PyE9T/Z8YP6CutTU7WQfLOh/GpVuom6Sof+BUAeWX37Jvwj1Dd5ngiyiJ728ksX/oLCucvv2GfhDeZ8vRb6zJ7wajLx/30TXvIkU9GB/GnBuOtAHzFff8E8/htc58jUtfs/TZcRuP/Ho656//AOCb3ht8/YvGWqQen2i1jk/ltr6+oB60AfD19/wTYuhk2Xj23b0E+msv8nNc9e/8E5fG0QP2TxJoVz6eYZY//ZDX6BA0UAfm5ffsAfFS0z5I0W89PJvsE/8AfSiucvv2LfjBY5/4pQ3IHe3vIG/9nr9Rs8UCgD8l7/8AZm+Kem58/wAC6wcd4oPM/wDQc1zt78KPG2mZ+1eENctwOpk02YD89tfsVuI9advY9zQB+Kt3o2oWBIubG5t8f89oWT+Yqn061+2MkMcykSRRyD0dAf51kX3grw7qYIvNB0u6B/57WUbfzWgD8ZetFfrze/Af4b6iWNx4F0CQnqw0+NT+YArndQ/ZM+Emobt/gqziJ728ksX/AKCwoA/Kiiv01vv2GPhHeZ8vR76zJ7wahIcf99E1zt9/wT0+HNzk2+qa9aegW4icfrHQB+dlAr7xv/8AgnB4ecn7F4y1KH0E9pHJ/IrXPX3/AATcvBuNl46t29BPpzL+oc0AfF/c0V9XX3/BOnxtFu+yeItDuQOnmGWMn/xw1z99+wL8U7XJhTR7wDtDfYJ/76UUAfOOOtAr2u+/Yy+L1iCf+EUa4A7293C3/s9c7ffs1/FHTs+d4H1jjqY7fzP/AEHNAHm1FdRe/Cvxpp2ftXhLXIAO76dMB+e2sK50e/siftFlcwY6+bEy/wAxQBTpR3oxiigAFAooFAAKKKSgBaBRQKACgHrR0pO1AC0DpRRQAUUUDmgAoo6UdqAAUlLQKAAUUCigA9aBQKPWgAoFFFAAO9GKKOlABQKBRQAUUUCgAAooFFABQKPWgdKADFFFAFACUtA6UUAA4oFApKAFopKXHFABRQKBxQAUd6KO1ABSY4NLRQAUUCgUAFFFAoAKKKPWgAo6UdqOtABR60UAUAAooFFAAKBQKKAAUCigUAAooHcUlAC0UUUAAoooHegAooooAKMUDvSUALRR+tAoAKKBR0oABx3oFAooAQUoopBQAvajtQKKAAUDpRRQAUetHWigAFAoooAKPWjGKB3oAKBQKBQACigUUAHWgDPTmtvw/wCDtT8RSAW0DCM9ZGHArqxa+F/Aq5upBrWpr/ywhI2qf9o9B+poA57w34A1TxGwaOEw2/UyyDAx610xuPCXgRCqKuvaoOoU/u0Pu3T8BmuY8ReP9V8QIYDILOy6C1tvlXH+0erfjXN0Aeu/CPx7qeu/GnwWJ5Ft7MapABa267Ix82Onf8c1+nR6kV+THwdn+z/FfwfJnG3VrX/0atfrQ/3m9jQB8L/8FCYQvjPwtLj71lKPykH+NfJ+a+vf+ChsONa8Gy46wXK/+PJXyFQACigUCgAHegUUUAAPpxVq31W9tT+5vLiE/wDTOVl/kaq0CgDftPiD4osT/o/iPVYcdNl7IB/6FW5Z/Hb4hWOPI8X6qMf37gv/ADzXB0tAHq1l+1R8UbHG3xXcSAdpYY2/9lroLL9tT4o2f3tStLjH/PW1HP5EV4SKKAPpSx/b5+Idv/rrXSrjH/TJ1/8AZ66Cx/4KI+J4v+Pnw3ZTepjuGT+YNfJdHagD7UsP+CjT/wDL34Scf9crsH+ait+x/wCCi3h58C68OanF6lDG3/swr4MoxQB+idj/AMFAvAE+PPt9StvXfbZx+TGt+x/bi+F93gNq0sB/6a2so/8AZa/M3pRQB+qVj+1r8L73G3xVZRk9pWKfzArfsf2gPh7qOPs/izSnJ4wLtP8AGvyOFGKAP2Ps/iL4avwDb63ZS56bJ1P9a04df06Yfu7yFgfRhX4vKSvIJH0q3ba3qNpgwX91Dj/nnMy/yNAH7Ppf27j5ZkP0ani4jbOHU/8AAq/HSz+JXi2wINv4n1eLH92+kx/6FW5ZfH/4i2H+p8Yapx/fm3/+hZoA/XEOCDgg/SlzX5VWP7WPxTscY8UyzAdpoI2/9lresv22/ijaY3X9jcY/562g/oRQB+m+aAa/Oiw/b+8f2+PtFhpVx9EdP/ZjW/Zf8FE/EMY/0nwvZy+pS6Zf5qaAPvjPtRnNfE9j/wAFGYyP9L8JSj18q6Vv5gVvWP8AwUS8LyY+0+H9UhPcqI2H/oVAH11RnA4r5lsf2+/h5cY89NRtv9+1Jx/3yTW/Y/ttfC28xnWngP8A01tpV/8AZaAPe9x9SailtoZwRLDHIPR0B/nXlFl+1X8L77G3xbYR57SybP54rfsPjp4C1LH2fxXpUhPpdx/40AdDfeBvDmpgi80DS7oHr51nG381rnr74C/DfUc/aPA+guT1IsI1P5gVu2nj3w9fjNvrNnMP9idT/WtGLWbGYfJdxNn0YUAeYX37JXwl1Ddv8GWkWe9vLLH/AOgtXO337DPwlu8+XpN9Zk94L+Tj/vomveFu4W+7Kh/GniVGHDA/jQB8x33/AAT1+Hdxn7PquvWnptnjcfrHXCeP/wBgPw/4Y8N6hqtn4uvx9liaQJdW0bA4BOMgj0r7ZDV5p8f7or4GeyUndfTR22F6kO4U/oTWFebp0pTW6R6eWYdYrGUqEtpSV/TqfKOgf8E+9T8ReHrPUoPGFrA9xGJPJlsm+XI6ZDf0qpff8E7fHEO77J4g0O59N7Sx5/8AHDX3n4dsxYaLZ246JGo/StHtWlO/Kubc5MRye2n7NWjd29L6H5t337BXxStAfKh0i8x/zxvsE/8AfSiudvv2OPi7Y5/4pN7gDvBdwt/7PX6i5oqznPyZvv2cPifp2fP8Eaxx/wA8rcyf+g5rnr34X+MdOz9q8Ka3b46mTT5QP/Qa/YYGjrQB+Lt1pF9ZEi4s7i3I7SxMv8xVXGK/aaWzgnBEsMUgPZ0B/pWRe+BPDWpZF34f0u5z/wA9bONv5igD8cBRX63XvwD+HGo5M/gjQnJ7ixjU/mBXPX37JXwmv927wfaxE94JZY/5NQB+WQ5or9K779hn4UXeTFpl9Zk/88b+Q/8AoWa569/4J8fD6fd9n1XXbX0xNG4/WOgD89aOtfdN9/wTn0Ntxs/GOoRegntUf+RWudvv+CcmoLn7H42tpPQT2DL+oc0AfHFA5r6nvf8Agnn44hybXXtEuf8AfaWPP/jhrnr39hD4o2oJih0m8A/54XuM/wDfSigD55o9a9mvv2PPi1Y5z4UecDvBdQt/7PXPX37OnxM07Pn+CdY4/wCeduZP/Qc0AedUV0t78MvGGnZ+1eFdat8dTJp8oH57axLjSr2zJFxaTwEdpImX+YoAq0UYoAoAB3oFFFABQKOlFAAKBRR60AFHY0lL1oAKKKKAAUetFAoAKBRQKACkHFLQO9ABRQKPWgAFFAooABRQKKACiikFACijtRRQAUUYo9aACigdKKAAUUetAHXvQAUUetAoAKBRRQADvRQKKAACjrRigUAFAoFFABRR60UAAooooAO1FFFABQOKBQKAD1ooHQ0etACUvTNAooAMdRRR+tAoAP1oooHegAooooAKMcUUYoAKBQKPxoABRV3S9GvNYmEVpA0rdyBwPxrq4/Dmi+FkEuuXX2m6xkWUHLfj6fjQBzWi+G7/AF2XZaQM47uRwPxrrE0bw74NG/VrgajqC8/ZIDnB9Ceg/GsnV/iBe3kLWunoul2PQRwffI926/liuWJJJJJJ7k0AdPr3xC1HV4jbQbdNsOn2e24yP9pup/l7VzAooFABSUUtAHQ/DmX7P8QPDMmfuanbH/yKtfru/Lt9a/HzwlL5HinRpf7l7C35SCv2C3Z+b1oA+M/+Ch8P/ImS+huV/wDQP8K+NK+2f+ChsOdE8IS9MXM6/mo/wr4moAKKO1HrQAfWijFFAAKPWigUAGKKKKAAUetA70etAAO9FA70UAAooFAoAKKKBQAUUUCgA6UUDpRQAetAoA60CgAFFFFABR60nal7UAFFJQOKAF6UUCgUAFAoo6UAKjtGcqxUjuDir9r4h1Wy/wCPfU7yDH/PKd1/kazxRQB09l8UfGOn4+z+KdXix2F9Jj/0Ktyy/aH+JNhjyvGGpcf35A//AKEDXnlAoA9gsf2uPipY4/4qd5wP+e1vEf8A2Wl1f9q/4ga/PZS6jeWl2LSQSxxtbAKWHQkA149SVMoqStJaGtKrUoT56Ts+6Pp7T/2//HdqqrPpelXAUY+USJ/7Ma6Cx/4KKa4g/wBK8KWsvqY7tl/mpr5CoqjI+3LL/goxakD7X4SuF9fJuVb+YFb1j/wUO8JTcXOhatB6kLGw/R6+Be1AoA/Rmy/b2+HFwP3x1C1J/v2pP/oJNb1h+2l8LL3/AJjxgP8A02tpF/8AZa/MgDNFAH6rWP7UPwwvseX4v05Se0kuz+eK37H41eBdRx9m8VaVLn+7dof61+RWOtA70Afsha+M9CvR+41a0lB/uTKf61fj1SzlGUuYm+jZr8Yo5niOUdlPqpxWhbeJtYs/+PfVb6DH/PK5df5GgD9kluImHEiH8acHU9GB/GvyDs/iv40sP+PfxXrEeP8Ap9kP8zW5Z/tGfEuxx5XjHUeP+ejK/wD6EDQB+sQPvmkzX5d2X7XnxUsgB/wknngf89raM5/St6y/bk+J1pgPPptyB/z0tSM/kwoA/SbOKM1+fFl/wUC8bwY+0aRpdxjrt3p/U1v2X/BRPV1/4+vCVs/qY7wj+a0AfdFJXxtZf8FFbEj/AErwldJ6+TcI38wK3rH/AIKEeDpx/pOiatbH/cjb+T0AfVZ561BLZW9wCJYIpB6OgP8ASvnmz/bv+Gtx/rpdQtj/ANNLRj/LNb9j+2R8K70D/ioRCT/z1gkX+a0Aen33gLwzqWftfh7S7nPXzbONv5iufvfgF8N9Q3ef4J0Nie62SKfzArNsv2mfhlfcR+L9MBPZ5gp/XFb1l8YPBWoY+z+J9Llz023af40Aclffsl/Ce/3b/CFtFn/n3llj/k1c7ffsN/Cu6z5enX9pn/njfyHH/fWa9ptvFejXgzBqdrKD02TKf61dj1G1lHyXEbD2YUAfNN9/wT68A3Gfs+r65aHsBNG4/WOufvf+CdejNn7H4xv4vTz7RH/kRX12J4z0kU/jS7ge4/OgD4hvf+CdOpJn7H41tZB2E1gy/qHNc/ef8E+fHEWfsuuaJcgf33lj/wDZDX39zijNAH5xX37C/wAUbTPl2+l3n/XG9A/9CUVz19+yH8WLHP8AxSkk4H/PC5hf/wBmr9Pc00jOaAPykvf2e/iTp2fO8Favx/zztjJ/6Dmufvfhv4t07d9r8MaxbgdTLYSqB/47X69ADJpCAeMcUAfjZc6beWZIuLWeAjtJGy/zqtX7KzWNtOCJbeKUHs6A/wBKx77wD4a1HP2vw/pdzn/nrZxt/MUAfkGKK/Vy9+Anw51DPn+CtEYnqVskU/mAK56+/ZN+FV9nd4St4v8ArhNLH/JqAPzDFLX6NXv7EHwuus+XYX9mT/zxvnP/AKFmsC+/YC8Bz5Nvq+t2v/bWNx+qUAfAlFfbl7/wTz0h8/Y/GF7F6efaI/8AIiuevf8AgnlqS5Np4ztZB2E1iy/qGNAHyIKK+nL39gLxvCD9m1rRbj/eeVP/AGQ1gXv7EHxOtMmO1027x/zxvQP/AEICgDwLFFeu3v7JvxVss58KSzAd4LiF/wCTVz978A/iLp+4T+DNXGO6WrOP/Hc0AcFQK6C8+HnirT932rw3q1uB18yxlUfqtY9xp91aEie2mhP/AE0jK/zFAFegUUCgAoA60UUAFFJS+tABQKPWkFABRSiigAoo60UAAoooxQACikpemaACijFFABRQKKAEFLRRQAUZoFFABQO9FFABRR+NAoAKKB3oHSgAFFFFABikpaKAD1oFAooABQKkt7aW6kEcMbSOeiqM101v4Rt9LhFzrt2tqp5W2TmRvwoA5yy0+41CYRW0TSueyiurh8KaboEYn1+7AkxuFnDy5/z+FVbzxt9lha20S2XToOhl6yt+Pb8PzrmXkeZ2d2Z3JyWY5J/GgDp9R8eTmA2ukwrpdpjH7v8A1jD3bt+FcuzM7FmYsx5JPU0gooAKSlHQ0UAFApO1LQADvRigUCgC3pEnlarZydCsyN+TCv2JgbfbxN/ejU/oK/G6BtkqN0wwP61+xekyebpNi/UNbxtn/gAoA+V/+ChMWfBfhaX+7qDrn6xt/hXwzX3p/wAFBId/w10GTH3NVA/OKSvgugAxR0oo7GgAHSkpaKACiiigA7UCiigA7UdRQKAOtABQKMUYoAKBzRRQAYo9aBRQADpRRRQACikFHrQAtA6GiigAoooHegBKBS0etAAOKBSCloAOtFAoAoAPWgUUetABniiij1oAKBR60CgAooooAQUtAooAKKQUooAOtFFAoAB3oooxQAUYo9aB1oAPxpKUUetAB2oFHakoAWgUdM0UAAo7UUCgAFAoFJigBRRQKSgCSKeSA5jkZD6qcVo23ivW7L/j31i/g/65XTr/ACNZYozQB1tl8XPG9h/x7+LNYTH/AE+yH+Zrcs/2kfiZYgeV4w1Aj0kKv/MGvNhRQB7NZftgfFKzx/xUCz4/57WsZ/kBW9Zftz/Eu1/1j6Zcgf37UjP5MK+e+lAoA+orL/goD4yh/wCPnRNMuPXaXT+prcsf+Ch+pKf9L8IwMO5ivCP5rXyDRQB9uWX/AAUN0sj/AErwpeIe/kzo388Vu2P7f/gqYYuNI1a3/wC2aN/J6+BqSgD9F7L9uP4aXA/e3V9bH/ppaOcflmt6x/a8+Ft7/wAzGkP/AF2hkT+a1+ZdFAH6oWX7Rvw2v8eV4w0zPo9wFP61u2XxV8H6hj7N4k0ybPTbdof61+SVJQB+w1v4l0q7GYdRtpc/3ZVP9atpeQSDKzI30YV+OcN1NbnMcrxn1RiK0rXxhr1n/wAe+t6jB/1zupF/kaAP19EisOGH50buOtfk3ZfGHxxp+PI8WauuPW8dv5mtyz/aU+JlkP3fi++IHaQI/wDNaAP1IBzSZr81LL9sD4oWYwddjuP+u1qh/kBW5Zftx/Ee2/1o0u5H+1bMM/k1AH6GEYJpuK+ErT9vvxbHj7RoWmT+6O6f1Nbdl/wUFvQP9L8JRH1MV4f6rQB9onBzxnNV59PtbgES28Uo9JIw38xXylZf8FAtIbH2rwvfJ/1ymRv54rcsv28/BM+PP0zVbY+8SNj8moA95vfAHhnUc/avD+l3GevmWcbfzFYF58Bfh3qBbz/BujEnulmin9AK4Cz/AG2PhrdffvLy2J/562j/ANAa3LL9rH4Y3gGPEsUX/XaN1/mKAJL79lH4WXwO7wtDET3gnljx+TVz97+xP8MrgHyrPULX/rleuf8A0LNd5p3x6+H+qnFt4q06QnoPOAP610Ft468P3gHk6xZyA9NsooA8Fvf2C/BE+Tb6vrVsfTzY3A/NKwL3/gn7pZz9k8XXcfp51or/AMiK+qItb0+YfJewN9HBqdbuFx8sqMD6GgD4xvP+CfuqKCbXxfaSegms3T+TGsG8/YN8bwgm21fRrn/eklQn/wAcNfd4YHkEH8av2dkWO6QbQOg9aAPyW+JHwz174V+IW0bX7dYLnyxKjxNvjlQ5+ZT3GQR61y1fWf8AwUPaMeNvCqKoDCxlJI6kGTj+Rr5MoABxRRR2NABRiigUAHrR60dqAKACkpe1FABRQOaKACj+dFHrQAUUdKP0oAKBRQKACiigUAHrQKSlHegAHNHaiigAHFFKqlztAJJ4AFbdn4WcQi41GZbC19X+830FAGLFG8zhI1LseiqM10Np4TS2hW51m5Wwg6hDzI/0FDeJLXSUMWjWoR+hu5wGc/Qdqwbm7mvZmlnlaaRurOcmgDoZ/F0WnxmDRLUWidDcSANK39B+tc5NPJcytJLI0sjHl3OSfxplHSgAooooAKKKKAD1oooxQAUUUn60AL0Bo6UCj1oAAcV+wfhKTz/CeiS/37GA/wDkNa/Hz1r9d/htKLj4deF5M/f0u2Of+2a0AeFft8QeZ8IrCT/nnqkZ/wDHJB/Wvz9HNfoh+3XD5nwSL/3NQgP/AKEP61+d9ABRRQKAEpRRRQAUUDoaOlAB1oo60lACgdaKBR2oAKO1HagUAFAoooABR60CgUAHrQKSlH50AFA4opKAF60Udc0UAFFFFABQKKPWgA7mij1oFABjrQKBRQAUUDJoFACUo70UUAAoFFAoABRRSUALQKKBQAUA9aOlJ2oAWgdKKKACiigc0AFFHSjtQACkpaBQACigUUAHrQKBR60AFAoooAB3oxRR0oAKBQKKACiigUAAFFAooAKBR60DpQAYoooAoASloHSigAHFAoFJQAtFJT0jaQ4RWY+ijNADaK07Lwvq9+QINNuZM9/LIH61vWPwk8TXuP8AQhCD3lcD+VAHHUd69SsPgBq8+PtF5BB6hVLV0dh+zvZpg3WoTyHuEAUUAeFUAZr6Wsfgj4ZsxukgMxHeWQkVsxeHfCWgplo9PtQO77R/OgD5bttIvrw4gs55s/3Iif6VuWHwy8S6gR5elTKD3kwor6An+IvgrR0IGpWrY/hgG/8AkKyLv9oLwxaA/Z4bq7P+xHtH/jxFAHnNh8A/Ed1gzNb2wPqxY10mm/s2uwBvNUP0iQD+dPvf2liuRZaLx/emmx+gBrnr79ofxPdZECWlqvbbGWI/EmgD0XTf2efD8GPP+0XJ/wBuTA/TFdHY/CvwppXzf2fbBh/FIMn9a+dL74seLNQz5mszop7QgJ/IVgXmu6lf7vtWoXVxn/nrMzfzNAH1vLqPhDw+P3t3p9pt7FlWsq8+NXgrTAQuoCcjtBEzZ/ECvk/1o60AfSN9+0zoVtuFnpt5cHsWCoP55rn779qfVCGWw0uOD0aWYtj8ABXh1AFAH0t+zf8AFzxb4s+MVmmoavPLayIc2gYiEAdML/Wv0NQgoO3Ar8zf2OoPN+L9ocfdjNfpnGMKO3SgD4A/4KET7/ijocWfuaWG/OV/8K+WhX0p+33P5nxqtI/+eWkwj85JTXzXQACgUUCgAFFA7ikoAWiiigAFFFA70AFFFFABRigd6SgBaKP1oFABRQKOlAAOO9AoFFACClA61vaN4SuNc0a7vLVt01vIFMOPvDGcj3qz4b+HOueJrtILazkG5tu5lIoA5gc8da2LHw1PND9ou3Wxtf8AnrNxn6CvqDwH+yTZWlolxq+sWy3Z5ESEMV+pPH5fnXX3H7M+mXSgf2pbygcASIpxQB8df23YaOpTSbfzZuhu5xk/8BWsO7vZ7+VpbiVpZD/ExzX2jJ+yhZS5C3GnsfeBapzfsiRtnZ/Z7fSPH8jQB8aUetfXc/7H8hztt7N/o7D+tZ837Ht0AdtlEf8AduHoA+VBQK+m5/2RNQXOLBv+AXB/qKzZ/wBkzVUBxZXf/AZVP8xQB87Uete9TfsraxHnFpf/AJof6Vnz/sy6zHn9xfD6wg/yoA8VoFetTfs7a3ET8t0PraH/ABqjN8BtbizzLx/etXFAHmYor0CT4La3Fnlf+BROP6VTk+Emtp3gP1LD/wBloA4vrSV1r/DHW0z8kLfST/EVXf4d64mf9FVvpIv+NAHN9qPWt1vAuup109j9HU/1qJvB2tJ106b8BmgDHFfrR8GZvtHwi8FyZyTpFt/6LFflS/hrVo/vaddfhE3+FfqX8ASx+CfgjzFZXXS4UYMMEEDGP0oA4D9t6LzfgLqLf887u2b/AMiAf1r84c1+ln7ZVsbj4A+IAoLFZLdgAP8ApslfmoUYdQR9RQAgooFAoAB3oFFFABQKKBQAetH0pKWgBBS4oFFAB60e9FHagAFFFGKACjpR0ooAPWigUYoABQO9FFABmj1pKUd6AEpfWjNFAAKBQKSgBaKB0ooAKKMUUAFFFA70AFFFFAAKBQKQUALR60CjtQAdqAKBQOlABQKOtAoAOuaKKB3oAMdqO1FHrQACigc5ooABzRQOKBxmgAo60DvRQAUDmiigAo9aKKACijtRQAUUUAUAA70CjGeAMn2q5b6Nf3ZAhsp5M91jNAFOgV0ln8OvEF5jbp7xj1lIFbll8F9Yn/100EHtktQB5+KBXr1j8CY8A3OoOf8ArmoH863LX4O+HrQbpt8pHeSTA/SgDwWpoLK4uuIYJJT/ALCE19BLpHgrQRmQ6fCR/fZSabL8R/B2lgrHco+O0ERP8hQB4rZ+B9dvseVpk5z3Zdv863bL4NeIbrl0htx/tvk/kK7m6+O+jW4IttPuZsdCQqg/rWJd/tAXjZFrpUMXoZJC36ACgB1h8Abpzm61FVHpHH/jXQ2HwF0eHm4nnn9csF/lXAXnxq8T3QIS4htgf+eUQ/rmsG88d+Ib/PnavdEHsj7P/QcUAe82vwz8J6UoaS2tzt6tO2f51Odb8E6CCPtenxEfwoVJ/IV8zz3c90xaaaSU+rsW/nUQoA+jrn40eErHIikluCO0UJH6nArEvf2ibFAfsekTyehldVH6Zrwygd6APVLz9oXWpci1srW293Jf/CufvfjF4rvc/wDEx8gHtDGo/nk1xYo9aANW88Wa1qBP2jVbuTPYzMB+Way2dnJLMWPqTSCigAFFAooAKKKQUAKKO1FFABRRij1oAKKB0ooA+gv2JoPN+LG7+7D/AFr9JB061+df7C0HmfEy6f8Auwj+dfosBQB+bX7dM/nfHm6X/nnp9un/AKEf618+V7l+2nced+0Drw/55w26f+Qgf614aKACgUUUAA70UCigAAo60YoFABQKBRQAUUetFAAKKKKADtRRRQAUDigUCgA9aKB0NHrQB6b8HXzbanH6Oh/MH/CvpH4sM2kfAuTUNMxZ3gtoz58ICsPmAPP0r5o+DbfvtUX/AGYz+rV9NfEhRd/s6XZ/u2JP5HNAHyHD8S/FUHCa/fD6yk/zq3F8YfGcIG3xDd8epB/mK4/9aBQB3sHx28cwfd16Zv8AeRT/AEq/D+0b47h6asG/3ohXmdA70AetQ/tRePIf+X23f/ei/wDr1oW/7WvjiL7z2r4/2GH/ALNXitFAHvUH7Y/jCL71vbP9GYVfg/bU8TJ9/TYG+kxH9K+dqMUAfTNv+27rC/63R1P+7Pn+a1oQftwzj/W6I/8AwF1NfKwo/GgD62h/bgtD/rdDn/DYf61eh/bX0J/9bpFwv1iU/wAjXx3R0oA+0Yv2xvB8v+t0+Rfrb5/lVmP9rH4ez/6212/71q3+FfEooFAH3HH+0n8MLn78cC/70DD+lTJ8bPhLdk7zYjP95cf0r4WoFAH3anxF+D15/wAtdMGf9tRUya38IbwcT2Az/dmUf1r4LpaAPvldP+Fd59y5thn+7OP8a9/+HUdjF4J0uPTHElgiskLA5+UOa/IYV+oP7Js3nfs+eEGznbDKn5SsKAOv+KGj2Wu+Dryy1GQw2kjJvcHGMMCP1rwdvgp4RuM7NVbn1YH+lep/tOq3/CivGDIzK6WZcMpwRhgc/pX5ix+ItVi+5qd4n+7O4/rQB9vSfs+eGps7dVU/7yIf6VSm/Zl0GcHbf2rf70KGvjiLxt4gg/1et6gv/by/+NXIfib4rg+54gvh9Zif50AfVsv7KmlSZ2XNg31gUfyqlN+yTaNnY9g30Qj+Rr5ri+MfjWH7niK8/Eg/0q7B8efHcB41+ZvZkU/0oA9Z8d/ssPoWiz6jA1sBAN7KrsNwHUcmovD/AOy6/iHRre/htYwsqg4+0ODXlmp/Hfxnq9i9pdar5sLjDDywM1oaH+0f4z0Gxis7S5tlgiACqYe351klPnvfQ7XOi8MoW/eX38j0ib9kO+AO22b/AIDcf4is6f8AZM1RM4trn/gMyH+lYUH7W3jeL7xs5P8AgDD/ANmrQh/bF8XR/ftLR/8AgTCtTiGzfsr6zGDi3vfzQ1nz/sya7Hn9zeD6wg/yNdBD+2j4iT/WaTbt9JiP6Vfg/bX1If63Q0P+7N/9agDgZf2dNeiz8tz+Nof8aozfAXXos8Sf8CtnFetQ/tr/APPXQX/4DIpq7F+2rprf63QbgfTYf60AeFy/BbXouy/8CRx/7LVST4Ta7Hn5YTj3YfzWvouH9snw3IP3ujXK/wDbNT/WrUf7W3gmb/W6fMufW3z/ACoA+YH+GeuJn9zEfpIP61A/w/11P+XPd/uyL/jX1cn7T3w4uP8AW2xX/etG/wAKmj+Pnwrux+8WBc/3rcj+lAHyK3gfXEz/AMS+Q/RlP9ahfwlrEfXTrjj0TNfYyfFj4RXf3pLBc+qY/pUqeM/hBd9LrTgf+ugFAHxc3h7VEznTrof9sW/wqFtKvU+9Z3C/WJv8K+3UuvhPeD5L2yH+7cAf1qRdB+GV3/q76H/gNz/9egD4Za2mTO6KRfqpFRYI6g/jX3b/AMIB4Buc+XqA/CcGmH4R+DbjOzUj/wB9qf6UAfCoor7hk+A3hWfO3UFP+8iH+lVJf2bvDkv3bu3P+9AlAHxTR619ky/su6K+dlxZkf8AXAD+VUpv2UdPYHZLZn/gLD+RoA+Q6K+rZ/2SYOdhtj9JXH9aoy/skvzsWL8Lhv6igD5g6UV9ITfsl3gztRv+A3A/qKoTfsoamn3Un/CVD/SgD5+oFe5Tfsua0mdsN1+SGqE37NGvx5xHcj6wA/yNAHjgoFeqy/s8eIIs/LP+Nq3+NUZvgV4giz8j/wDAoHH9KAPOBxSCu7l+DfiCLP7tP+BK4/8AZaqSfCvXYhzHEf8AgRH8xQByFArpn+HOuJn/AEdG+kgqu/gPXE62JP0df8aAMEUetbL+DdaTrp8p+mD/AFqBvDOrJnOnXP4Rk0AZtAq62iaig+awuR9YW/wqFtPuk+9bTD6oaAIKBTjC65yjL9RTcUAFAFGOtA70AFJS0CgApB3qeGyuLj/VQSSf7iE1p23g7WbrGyxlAPdxt/nQBjUV2Fr8LdYm/wBY0MI92ya17T4PsR/pF9j2jT/GgDzgUV63D8L9Es13XM8j46+ZIAKnWz8FaT96SyLL6sHP9aAPH44nlOERnPoozWhbeGdVvP8AVafO3uUI/nXqJ+IHhXTgRbqZMdoocfqcVQuPjJZxg/ZtMlf08xwv8s0AcrafDHXrrGbdIQf+ej4/lmtq0+DF9Jg3F5HH6hEJqO5+MupuCLe0t4P97LH+lY918TPEN1kfbvKB7RIooA7e0+DFhHzcXc0nsMKK04vAXhPSV3XHk8dTPLn+Zrx658RapeE+fqNzID1BlbH5ZrPLMxJZix9TQB7ouveCdGHyTWeV/wCeKbj+gqvP8X/D1nkW8E8/psjCj9cV4kKKAPV7n46bci10r8ZZcfyFY918atemyIUtrcH+7GWI/EmuAooA6S7+I3iO8yH1WZVPaMBP5Csa51a+vM+feTz56+ZKx/maqUUAFFFAoAKPWgUUAFJRS0AAoopKAAUtA5ooAKKKKAAUUdqB3oAMUUCj1oAKBRRQAUCigUAFAHWiigAopKX1oA+o/wBgm33+O9Rkx92MDNfoMBXwX/wT+g3+JtXk9Ao/SvvXGM/SgD8tf2u7j7R+0J4uPULJCn5QpXj1eo/tOz/afj341fOcXu38kUf0ry+gAoo60UAAoooxQACikpemaACijFFABRQKKAEFLRRQAUZoFFABQO9FFABRR+NAoA7/AODr41TUE9YlP5NX1Tr0f239njUk6n7DMPyWvk/4RPt8Q3Cf3rc/owr66sI/tnwM1KPr/o86/wDjpoA+DRRRRQAYpKWigA9aBQKKAAUCk9aX1oAKKBxQOaACigUUAFJSjoaKACgUnaloAB3oxQKBQAetfpj+xrN5/wCzz4b/ANiS5T8pmr8zh0r9I/2IJfN/Z90sf887y6X/AMiZ/rQB2f7RUXn/AAP8apj/AJhkx/JSf6V+VNfrL8b4PP8AhB4yjxnOlXP/AKLavyaoAMUdKKOxoAB0pKWigAooooAO1AoooAO1HUUCgDrQAUCjFGKACgc0UUAGKPWgUUAA6UUUUAAo/GkFHrQA9ZXT7rsv0NTR6ldxD5Lqdf8AdkI/rVeigDQj8RatD9zU7xP924cf1q1F428Qwfc1vUF/7eX/AMaxaB3oA6aH4m+K4B8niC/H1mJq5D8ZPGsP3fEV5+JB/mK42j1oA7+H49eO4emvzN/vIp/pV6D9o/x5D/zFVf8A3oRXmIpaAPWof2ofHcfW7tX/AN6H/wCvV2D9rHxrHw4spfrGw/8AZq8YFAFAHu0P7X3ilPv2FnJ+LCrsP7Y+ur/rNGtm+kxH9K+fKPWgD6Qh/bLvQB5ugRn/AHZ//rVei/bKi/5a+H5P+AyKa+YaPWgD6oj/AGxNIf8A1ugXA+mw/wBatR/tbeF5f9bo1yv1jU/1r5N9aBQB9dJ+1B4Em/1unzL/AL1tmpR+0N8M7j/WWuP960b/AAr5AooA+xU+MvwpuvvLbrn+9bEf0qVfiF8JLnkz2SZ/vArXxqKKAPsxfEHwluz8uoWCn/rtj+tSLF8L7riPUrQZ9Lr/AOvXxcKUUAfag8LfDy6z5eqRf8BuQaafhn4IuAdmpKfpIh/pXxaOKcsjr912H0NAH2W3wR8I3QO2+ibPZljP9K8q8e/BHS9M8RziG5k+yYUqUUKrcfSvE7TU7uC4iaO6mQhhjbIR3+tfWnx0IP7PMUuB5rSwgvj5j8470AeKt4T8K6V/x8XERI/56zD+WaQa34O0viIQuR/zyhLfrivKvWgdaAPUJfihpNvkW1jM/vhVFZ8/xducEW+nxR+hdy39BXn4o9aAOrufidrs4IWaKAf9M4x/XNZVz4s1i8z5upXBHor7R+lZPakoAklnknJaWR5G9XYn+dMFHTNFAAKO1FAoABQKBSYoAUUUCkoAXpQKBRmgAx1ooFFABRR0oFABR60UUAAoopKAF9aBRRQAUUUlACigCigUAA70dqOlHrQAUetHrijFAB60UUUAIKWgUUAGOtJRQKAFo9aKBQAUDiigUAfY3/BPe33ahrcmOjKM/gK+5jwDz2r4r/4J7W/+j61Lj/loB+lfahGFb6UAfkj8fp/tPxq8bPn/AJis6/kxH9K4Gut+Ltx9p+KnjGXPDavd/wDo5q5KgAHFFFHY0AFGKKBQAetHrR2oAoAKSl7UUAFFA5ooAKP50UetABRR0o/SgAoFFAoAKKKBQB2Hwpfb4px/egcfyr7I8Ej7T8J9Ti68Sr+YNfGHwyfZ4uth/eRx/wCOk/0r7P8AhX++8A6rF1w5H6GgD4HIwxHoaO1T6hH5N/cx/wByVl/ImoKAAcUUUdqAAUUUUAFHWijpQAUUUUAFFFFAB60UUYoAKKKT9aAF6A0dKBR60AFfov8AsIzeZ8CQmf8AV6ncL/6Cf61+dHrX6EfsBTCT4M6lHnmPV5B+ccZoA9r+KkH2j4aeKY+u7TLgf+Q2r8jBzX7A+OYRP4L16LrvsZlx/wAAavx+oAKKKBQAlKKKKACigdDR0oAOtFHWkoAUDrRQKO1ABR2o7UCgAoFFFAAKPWgUCgA9aBSUo/OgAoHFFJQAvWijrmigAooooAKBRR60AHc0UetAoAMdaBQKKACigZNAoASlHeiigAFAooFAAKKKSgBaBRQKACgHrR0pO1AC0DpRRQA+D/Xx+7D+dfXfx1GP2dbf/rrB/wCh18i23+vj/wB4fzr66+O4/wCMdbX/AK7Q/wDoVAHyDRR0o7UAApKWgUAAooFFAB60CgUetABQKKKAAd6MUUdKACgUCigAoooFAABRQKKACgUetA6UAGKKKAKAEpaB0ooABxQKBSUALRSUuOKACigUDigAo70UdqACkxwaWigAooFAoAKKKBQAUUUetABR0o7UdaACj1ooAoA+6f8Agnvb48P6rL6zV9hy8ROc9jXyd/wT9g2+Cb6THWZv519YXZCWk7eiE/pQB+OPjyb7T448RTZz5mo3L/nKxrCFX9el8/XdSl/v3MjfmxqhQACgUUCgAFFA7ikoAWiiigAFFFA70AFFFFABRigd6SgBaKP1oFABRQKOlAAOO9AoFFAHQ/D19ni/TjnGWYf+OtX2r8GW8zwxrMfo4P6V8R+Cn8vxVph/6bAfnxX2t8Dn3adrceeymgD4h8TReR4j1aP+5dyr+TtWb2rf8fw+R458QR/3b+b/ANDasCgAFA6UUUAFHrR1ooABQKKKACj1oxigd6ACgUCgUAAooFFAB1pKUUUAHaj1pBxS0AAr76/4J6zb/hb4ji67NXz+cKf4V8C192f8E7Zt3gbxfFn7uoxN+ceP6UAfUHiGPzdA1JD/ABW8g/8AHTX46ONrsPQ1+ymop5mn3K+sbD9DX45alH5Wo3af3ZXGPoxoAriigUCgAHegUUUAFAooFAB60fSkpaAEFLigUUAHrR70UdqAAUUUYoAKOlHSigA9aKBRigAFA70UUAGaPWkpR3oASl9aM0UAAoFApKAFooHSigAooxRQAUUUDvQAUUUUAAoFApBQAtHrQKO1AB2oAoFA6UAFAo60CgA65oooHegCS2H+kxD/AGx/Ovrr498fs7Wf/XaH/wBCr5GtP+PqH/fX+dfXXx/4/Z4sf+u8P/oVAHyAKKBzmigAHNFA4oHGaACjrQO9FABQOaKKACj1oooAKKO1FABRRQBQADvQKKKACgUdKKAAUCij1oAKOxpKXrQAUUUUAAo9aKBQAUCigUAFIOKWgd6ACigUetAAKKBRQACigUUAFFFIKAFFHaiigAooxR60AFFA6UUAfod+wPa+X8N5ZMfemb+dfS+tv5Gj38nZYXP5Ka+fP2FbfyvhRE399ya948bzfZvBuuzE4EdlM2fojUAfjTcP5txK+c7nJ/U1HRnrQKACgUUUAA70UCigAAo60YoFABQKBRQAUUetFAAKKKKADtRRRQAUDigUCgA9aKB0NHrQBpeGX8rxDpjelzH/AOhCvtf4FP8AvNYj9YlP618Q6O/l6rZN/dnQ/wDjwr7X+BT/APE41FP70H9aAPkv4uwfZ/iX4lj/AOnxz+Zz/WuRrvfjvD9n+LXiRT3nDfmgrghQAfrRRQO9ABRRRQAUY4ooxQAUCgUfjQACiijpQAUUCgUAIKUCigUAFJRS0AFfb/8AwTpmzoPjeH+7cWz4+quP6V8PivtL/gnLPx47hz/DaP8ArIKAPsm5XNvKD3U/1r8d/E0fk+JNWj/uXcq/k7V+xUnMbj2r8gPHsXkeOPEcf9zUbhfylagDCoo7UetAB9aKMUUAAo9aKBQAYooooABR60DvR60AA70UDvRQACigUCgAoooFABRRQKADpRQOlFAB60CgDrQKAAUUUUAFHrSdqXtQAUUlA4oAXpRQKBQAUCijpQACgUCigAHFIKWgUAFAopKAFFHrRRQAUCjtQKACgUAZooAmsv8Aj7g/31/nX11+0Dx+zzp4/wCm8P8AM18i2I/0yD/rov8AOvrr9oTj9nrTveeH+dAHx/SUtFABSDvS+tFABRRRQACiiigBKWgUetABRRQMfWgAFAooFABR60CigAoFFFAAKBRRQAUUUCgAo9aBRQAUlFLQACiikoABS0DmigAooooABRR2oHegAxRQKPWgAoFFFABQKKBQAUAdaKKACikpfWgD9M/2JoPK+D9gf7wzXq3xcn+yfC7xbNnGzS7ls/8AbJq87/Y7t/J+Dmk+8Yrs/j9cC0+CnjiXpjSLn/0WwoA/IailFFABRR1ooABRRRigAFFJS9M0AFFGKKACigUUAIKWiigAozQKKACgd6KKACij8aBQBJavsuYm/uuD+tfa3wKk/wCKmmX+/btXxKvBzX2d8CpgfFVrz9+3I/QUAfP/AO0lB5Pxe1v/AG/Lf/xwf4V5jXr37VMPk/Fu8P8Aft4m/mP6V5DQAYpKWigA9aBQKKAAUCk9aX1oAKKBxQOaACigUUAFJSjoaKACgUnaloAB3oxQKBQAetfYX/BOaYjXfHEXraWzfk7/AONfHo6V9a/8E65dvjjxdFn7+mxt+Uv/ANegD7ob7jCvyM+K8P2f4neLo+m3Vrr/ANGtX66/wmvyY+OUX2f4w+M06Y1W4P5uT/WgDh8UdKKOxoAB0pKWigAooooAO1AoooAO1HUUCgDrQAUCjFGKACgc0UUAGKPWgUUAA6UUUUAAopBR60ALQOhoooAKKKB3oASgUtHrQADigUgpaADrRQKAKAD1oFFHrQAZ4ooo9aACgUetAoAKKKKAEFLQKKACikFKKADrRRQKAJ7D/j9g/wCui/zr65/aI/5N80z/AK+Iv5mvkaw/4/rf/rov86+uf2iuP2ftLH/TxF/WgD4/oxR60DrQAfjSUoo9aADtQKO1JQAtAo6ZooABR2ooFAAKBQKTFACiigUlAC9KBQKM0AGOtFAooAKKOlAoAKPWiigAFFFJQAvrQKKKACiikoAUUAUUCgAHejtR0o9aACj1o9cUYoAPWiiigBBS0CigAx1pKKBQAtHrRQKACgcUUCgD9Wf2VbfyPhBoox1hFX/2oJ/s3wC8cNnGdOkT8+P60/8AZug8j4UaKuMfuF/lWV+19cfZv2efGDZ+9AifnKooA/KmikFLQADiiijsaACjFFAoAPWj1o7UAUAFJS9qKACigc0UAFH86KPWgAoo6UfpQAUCigUAFFFAoAPWvr74DT58R6I3/PSBR+aivkCvq34CXGNV8LvnrHGCf+AigDgf2u7fy/ijG/Z7JP0Z68R7V9AftmW/lePdNkx9+0I/Jz/jXz/QADiiijtQACiiigAo60UdKACiiigAooooAPWiijFABRRSfrQAvQGjpQKPWgAr6n/4J5Tbfil4giz9/SGP5SpXyx619Mf8E/J/L+NN/Hn/AFmjz/o8ZoA/QjscV+Uv7RkPk/HDxon/AFEXP58/1r9W8da/LH9qSHyPj54zX1u1b841NAHllFFAoASlFFFABRQOho6UAHWijrSUAKB1ooFHagAo7UdqBQAUCiigAFHrQKBQAetApKUfnQAUDiikoAXrRR1zRQAUUUUAFAoFaekeHL/WnxbQ5XPMjnCj8aAMzuaK7mz+Fk0o/e30QP8AdjG6if4W3MJ3Ccug/wBjB/nQBw2OtAr0bS/h9A/Eljczn1DAfyrXPw10Roz5sFzat6kmgDyKivQL34b2jyMlldzM3bcuRWJqPw81vT42lFsbmIclouTj6daAOZpR3pXRo2KspVhwQRgikoABQKKBQACiikoAWgUUCgAoB60dKTtQAtA6UUUAWNO/4/7b/rqv86+uP2juPgBpI/6eIv618j6b/wAhC2/66p/6FX1x+0h/yQPSP+vmL+tAHx/RR0o7UAApKWgUAAooFFAB60CgUetABQKKKAAd6MUUdKACgUCigAoooFAABRQKKACgUetA6UAGKKKAKAEpaB0ooABxQKBSUALRSUuOKACigUDigAo70UdqACkxwaWigAooFAoAKKKBQAUUUetABR0o7UdaACnwLvmRfVgP1plT6em++t19ZFH60Afrn8BoPJ+GOiqR/wAu6fyFcV+23cfZ/wBnXxJzje9sn5zpXofwdh8j4eaMuOlun8hXlX7ek/k/s+6gg/5a3tsv/kTP9KAPzMFAoFFAAKBRQKAAUUDuKSgBaKKKAAUUUDvQAUUUUAFGKB3pKAFoo/WgUAFFAo6UAA470CgUUAIK+nPgVcbZfC756bF/pXzJX0T8D7jFn4efP3Zdv/j5FAFn9tqDZ4p0KT1hlXP0Zf8AGvm3tX1L+29B/pfh+Yf3pl/9BNfLVAAKB0oooAKPWjrRQACgUUUAFHrRjFA70AFAoFAoABRQKKADrSUoooAO1HrSDiloABX0V+wXN5fx4RP+eml3K/8AoJ/pXzrXvn7Dc3lftB6Uuf8AWWlyn/kMn+lAH6S9q/MD9ruHyf2gvFX+08L/AJwpX6fivzO/bPg8r9oDXj/fit2/8hAf0oA8PFFAoFAAO9AoooAKBRQKAD1o+lJS0AIKXFAooAPWj3oo7UAAoooxQAUdKOlFAB60UCjFAAKB3oooAM0DvSCrWnyRwXcbyxGZFOfLHf2oAhEEjLu2Nt9cVf0jQrjVpCEGyIfekccCu6stB1TW4PtM8KWVtj5YguWI/pXQaB4PtWuY1v55GUYK2yHaPxx1oAyPC3whj1Vw3mO6+p6V2ms+EdP8IaQ8tzcbY0HTOB9K7iPWNO8NWAWKNIMDAGOTXKXHhTVPinq0BubeSLS4n3BG+XefU0AZPgqyk8QJ5trautv/AAvt611914b+xxbpQSR2bpXqmi+HbLwppSxhETYoGMCuL1zVV1fVPs8Q3ID823tQBg6NZSyyYWIhQeiiull0NZoNpgDZH8QrpPDmlxRxjIUACtfU9R0zT4D5jKCBQB5xaeEdNhkLTJHCfYYrX/sHRPLx5qbv96pPPttalYRRF0J9KsweBLa4Bc220+oOKAOW1b4e6DqSsZbeG7Q8Hco3Ka8t8bfAKIRyXOhsYyOfJY5U/wCFe2ap4Sa0yYjIoHfOcVFpUN5bTBZGWSM8AsOKAPi7UdMutJuntruB4JV4KsP5etVhX2V42+ENh4ytZQ0KxS4yCByjeoNfMHjv4bat4CvDHexGS1Y4jukHyt7H0NAHKUetAo7UAHagCgUDpQAUCjrQKADrmiigd6ALGmD/AImNqP8Apqn8xX1v+0nx8BNGH/TzF/7NXyTpf/IStP8Arsn/AKFX1t+0t/yQfRR/08xfyagD5AFFA5zRQADmigcUDjNABR1oHeigAoHNFFABR60UUAFFHaigAoooAoAB3oFFFABQKOlFAAKBRR60AFHY0lL1oAKKKKAAUetFAoAKBRQKACkHFLQO9ABRQKPWgAFFAooABRQKKACiikFACijtRRQAUUYo9aACruhpv1mwXrm4jH/jwqkOlanhWPzfEmlp63Mf/oQoA/YL4ZxeT4J0lOmIF/lXhf8AwUIuPK+B8Eef9bqkC/kHP9K9/wDA0fleFNNX0hX+VfN3/BRmfyvhPocWf9Zq6fpFLQB+d9FHrQKACgUUUAA70UCigAAo60YoFABQKBRQAUUetFAAKKKKADtRRRQAUDigUCgA9aKB0NHrQAle9fBSbbpGknP3Lkj/AMfrwYV7Z8F5saJbn+5dn+YNAHpH7bkO7SfD8wH/AC3Yfmmf6V8l19hftnQ+d4G0Ofri5jP5xtXx6KAD9aKKB3oAKKKKACjHFFGKACgUCj8aAAUUUdKACigUCgBBSgUUCgApKKWgAr279i+byv2ifDI/vi4T/wAgv/hXiAr2D9kWfyP2iPBhz965kT84XFAH6hgV+bX7cMPlfHm+P9+yt2/Qj+lfpN074r85/wBvGHy/jer/AN/S4D/49IP6UAfOlFHaj1oAPrRRiigAFHrRQKADFFFFAAKPWgd6PWgAHeigd6KAAUUCgUAFFFAoAKKKBQAdKFG7pQORXS/D3QRr/iS3gZN0SHe3pxQBY0v4daheWS3kxFtC3I3DkivW/h78HrOMR3U+HbqCwya2fEmlhNOtbaBeS6gAV634V0WDS9EjecguEyc0AeeeL7fT/Cmhz3cwCpEufm7nsBXnHw2jvNbvLrVJlZjM5EKdlXNb/wASVuPib4zttB08sum2h825kHQt6fgP516t4Y8N6d4bsYbeCNcqoUcUAUdB8G2cBFzexfaZ+oLjOPpXSvrH9nRFba3AAHGBity3sg8Q+UZ9Ksx+GY5Yy8goA8u1fWNX1qRokQhScZq3oPhaSzQy3BCE8k+teiWmh2ySMRGOPauf8Qyo115KsQvtQBQutQWGLyrYF26ZFZsWg3eqzh7iJvLz0xmus8O6LBdTKNmcd69DtrO0sYBlF/KgDidE0eGyjA8jbj2reTy9m1RirtzqFmWKhAPoKrMY2jJXGaAMXUbcJuYMCf7prldQk8jc6Q4/vKOhrqLmKWaYgDIq3b6BHIhLrz3FAHC6b4hxcKGO3PykOO1S+MfDtj4j0a4t7u3WWORcEEV0mr+ErRkb5Qvow6iszTNJlZXgaYsgO0g9qAPhXxr4Wm8IeIrvTZQxRG3ROf40PQ/59KwxX2j8Q/hBaeI0EN9D5vUwzpw6H0Br5m+I/wAKtR8BTead9zpzNtWfbgofRh2+tAHDij1oooAKBR2oFABQKAM0UAWtJ/5Cln/12T/0KvrT9pjj4EaH73Mf8mr5M0gZ1Wz/AOu6f+hCvrP9pvj4E6D/ANfMf8moA+QaSlooAKQd6X1ooAKKKKAAUUUUAJS0Cj1oAKKKBj60AAoFFAoAKPWgUUAFAoooABQKKKACiigUAFHrQKKACkopaAAUUUlAAKWgc0UAFFFFAAKKO1A70AGKKBR60AFAoooAKBRQKACgDrRRQAVv+AY/O8aaKnrdJ/Oufrq/hXD53xE0BOubtKAP2A8Kx+X4fsR6RL/KvlP/AIKST7fAnhOHP3tSd/yiYf1r6z0FdmjWa+kS/wAq+Ov+ClNxjR/BUH964uHx9FUf1oA+EqKUUUAFFHWigAFFFGKAAUUlL0zQAUUYooAKKBRQAgpaKKACjNAooAKB3oooAKKPxoFABXr/AMGJP+JLOP7t1n9FryAd69W+DMn/ABLdQX0mU/p/9agD3n9reP7R8JdMm67ZIGz/AMBIr4wr7Y/aZj+0/Aa2l67Vt2/8fAr4noAMUlLRQAetAoFFAAKBSetL60AFFA4oHNABRQKKACkpR0NFABQKTtS0AA70YoFAoAPWvUf2XZvI+P8A4HbOP+Jgq/mrD+teXDpXoP7PU/2b43eCH/6isA/N8f1oA/WM8E/Wvz1/b/g8v4wabJ/f0mP9JJK/Qt+Hb2NfAX/BQmHZ8SvD8n9/TCPykb/GgD5XxR0oo7GgAHSkpaKACiiigA7UCiigA7UdRQKAOtABQKMUYoAKBzRRQAYo9aBRQADpRRRQBNa2kl3Ksca5Z2CD6npXrNmtn4A1PSdLtz5t9eFPPdeoBOM/jXLfCjRH1rxEo27o4cOeO/b+tdD410e50/4zWKS5CzNBJESP4cY/mpoA94ttOGpXdqduViw3PrW/4hS6urUWdsSpcbSw7Uzw7CkKje2XxnmuhghVt8noKAPP7XT7XwtstIAPPc5dz1Y+5rsfD2mNcyKzgk1wMRfXfiM8CZMFuufq2a948O6Hs2nbQA+z0wqBhSTVma1lI2/dFdGtmtvDnHNYeqXJiDY60AYGrajBo1s5LDfjp615+zTaje7wfvHir/jNLiaWM5IUnkmtLRNE2LCergCgDrPD+ki0sRJ0fGaqapqN1JIYooyfetyzMiwLHszxitLT9D+0tnYc/SgDkNP0e5lJaU4zWtHpnlqAetdimkpAMFeaZd6fEY+wNAHO2WloTuxmk1O3a3BKr0rUihNs+VORVi4ijuIucZoA4NnXUC1vIxR+1c9qngzVrGU3VpeMB6EV2+raENrSR8SLyDT9K1Rbm3a3uABInGG70AchpuoS3KfZNSjw46SL/Oq/irQtO8RaLe6VqUSSGaIoHI+8D/UV1d7psW8EAZHOR6VyXieAyqEViGU5Vh2oA/P3V9ObSdVvbFzlraZ4SfXaxGf0qpXU/E/RbvRPHOrw3ibXmna4RuzK5JBH5/pXLUAFFIKUUAHWiigUAW9H/wCQtZf9d4//AEIV9ZftPcfAzQB/09R/+gtXybo3/IXsf+u8f/oQr6y/ah4+B/h4f9PUf/oL0AfIVGKPWgdaAD8aSlFHrQAdqBR2pKAFoFHTNFAAKO1FAoABQKBSYoAUUUCkoAXpQKBRmgAx1ooFFABRR0oFABR60UUAAoopKAF9aBRRQAUUUlACigCigUAA70dqOlHrQAUetHrijFAB60UUUAIKWgUUAGOtJRQKAFo9aKBQAV2/wRh8/wCKfhxf+npTXEV6N+zvB5/xd8PL1xODQB+uOkpt022Hby1/lXxD/wAFK7nN54Ggz/Bdvj8YxX3HZLssoR6KK+Cv+ClE+fGHg2HP3LKdsfV1/wAKAPjiikFLQADiiijsaACjFFAoAPWj1o7UAUAFJS9qKACigc0UAFH86KPWgAoo6UfpQAUCigUAFFFAoAPWvTfgxJ8mqp7xn/0L/CvMa9H+DD4vNUT1SM/qaAPpr45J9s/Z03ddtvG2fpIK+H+1fdPxIT7Z+zXdd9tk36HNfC1AAOKKKO1AAKKKKACjrRR0oAKKKKACiiigA9aKKMUAFFFJ+tAC9AaOlAo9aACuy+C8/wBn+LfgyTONur2v/o1a431ro/hrN9n+InhaXP3NUtWz/wBtVoA/YOT/AFj/AFNfB/8AwURh2+M/Ccn96xmX8pB/jX3hN/rH+tfDv/BReHGteC5fWC5X/wAejoA+O6KKBQAlKKKKACigdDR0oAOtFHWkoAUDrRQKO1ABR2o7UCgAoFFFAAKPWgUCgA9aBSUooA9p/ZyWMareR4DOWAz+FegfHDSYxq3hK9jUfbYbsR8dSh5I/T9a8o+BGrw6JrU1xOwVeMEn0r27S7Of4g+Jjqsyn7BacW6kdW7tURldtdjoqU3CMZd0P1TWHsNQsoYyd0q9O9dto11Je2TIxw2K86e2OpfETaRmKziwB2yTzXqnhXTjNcOQPlqznM/wT4UWy1u5uiuS7cse9e3aLEmFAFc1Y6alsvTBrZtZzbYbtQBuahBtjyOlcnd2pubkg9M1s3mrq8PUdKwk1DM5I6ZoAxPGemxx2SHHIINUvDkjXMyjtkVseIj9thK4zgUeBtEcAMynIbjNAHo/h/QoJ4A0xCCt0G1sl8qJQxP8VZFtaXLoFjQ7RV+30adm+cEUASyaZJLG0qjdnpisuXw7dztlVO33rTlubvTTgfd9Kpza7cyAgMV+lAFOTQZIiUb71RjRJYyWIO0etXYL2V3yQSafd3s8g2sCB6UAYmpWyrC3HQVyz6Mt6zsh8uQdGFdfdQPJGd1YO82kjN2JoAw5tL1AEhjux0b2rN1fSWNth+ZD0IrtluBOp24JNU9S0/8Ac5xkjmgD5J/aP8DnVvDy6xDFi90w7ZcD70Xf8uD+dfMQr9APihZQLoeqmfCwSWr+YT0A2nJr8/xQAUA9aOlJ2oAWgdKKKALmi/8AIYsf+u8f/oQr6w/aj4+CPhz/AK+k/wDQWr5Q0P8A5DNh/wBfEf8A6EK+r/2phj4KeGh63Sf+gtQB8h0UdKO1AAKSloFAAKKBRQAetAoFHrQAUCiigAHejFFHSgAoFAooAKKKBQAAUUCigAoFHrQOlABiiigCgBKWgdKKAAcUCgUlAC0UlLjigAooFA4oAKO9FHagApMcGlooAKKBQKACiigUAFFFHrQAUdKO1HWgAr1b9l+HzvjLoY64Yt/KvKa9l/ZGt/P+NOkjGdqsf5UAfq1bDECD0UV+ev8AwUeuN3xQ8Ow5/wBXpZP5yv8A4V+hsQ/dL9BX5wf8FErgSfGzT4h/yz0iL9ZJaAPlwUCgUUAAoFFAoABRQO4pKAFooooABRRQO9ABRRRQAUYoHekoAWij9aBQAUUCjpQADjvQKBRQAgrv/g4+NavUz96DP5MP8a4Gu2+ET7fE8q5+9bMP/HloA+utcT7b+zhqKdcWc4/Ja+D+1ffGmJ9t+A2qRdcRXC4/4DXwPQACgdKKKACj1o60UAAoFFFABR60YxQO9ABQKBQKAAUUCigA60lKKKADtR60g4paAAVreEJvI8V6LJ02XsDZ+kgNZNWtHk8nVrKTP3J0P5MKAP2cc5Yn15r4r/4KMQ/L4Kl9Dcr/AOizX2jE2+KNvVFP6Cvj3/gotDnQvB8vpczr+aA/0oA+HhRQKBQADvQKKKACgUUCgA9aPpSUtACClxQKKAD1o96KO1AAKKKMUAFHSjpRQAetGKBRjrQBreH7kxXEaA8bwTjvX3B8LrWIeFkIAXK18QW8Udroi3q8zCfYPbjPNfXnwE8RHxF4UhkJ24O0r6EcViotT5uh6MqsZYZU3uvyHnTf7P8AF1xMVxHL/F75r1nwPaK0WQM89a5zxJoyPb+ao+cDqK6b4X3AmtFD8sODWx5x0uow+TGSKwrnWRFGyk4Iro/EJ/dMFFeWateM160YOMdaANz+1HuWKgnFaemWxnbNc1oj72IrudEjC8GgAfTgzAMM10Wh26We3Cg/hVUxjdmtO2QBQQeaAOo064llUgYAHpVi4ml6qDmqOjzCL7zAZrZM0TRnBFAGHeXTsvzjNP06ytrmJndcY7UzUdvIFP0uQCF07mgC3bm1RiFhHXvVDV8NJlQAPQVqWVoCrs3Wsy/GJGB6UAZM/wA0RFc/f24KuCK35WHOKy75cgjtQBgWEnkXYU9M10VxGskBPqK5u7j8v5hwynNbFnd+dbr34oA8r+OWgy6r4J1iztx++ntJET3OCR/KvzxKFGKkYYHBB7V+nnjJVntZVPOFNfnL8RrKLT/HWvW8IAiS7kwB0GSTj9aAOcoFHWgUAHXNFFA70AXdCH/E608f9PEf/oQr6v8A2qT/AMWW8Mj/AKek/wDQGr5R0D/kOad/18R/+hCvq39qzj4M+Fx/09L/AOgNQB8iCigc5ooABzRQOKBxmgAo60DvRQAUDmiigAo9aKKACijtRQAUUUAUAA70CiigAoFHSigAFAoo9aACjsaSl60AFFFFAAKPWigUAFAooFABSDiloHegAooFHrQACigUUAAooFFABRRSCgBRR2oooAKKMUetABXu/wCxfbef8ZrI/wB2M14QOlfRP7DUHm/F8N/ch/rQB+najCD6CvzM/b/uPO+P8qZ/1Wm26fq5/rX6Zjha/Lr9ui48/wDaJ1xc5EVvbJ/5DB/rQB4BRR60CgAoFFFAAO9FAooAAKOtGKBQAUCgUUAFFHrRQACiiigA7UUUUAFA4oFAoAPWigdDR60AJXX/AArfZ4tjGfvROP0z/SuRFdP8NX2eMbH/AGt6/wDjpoA+1/Aa/avhHq0PXBkX81NfATLtZgexxX3/APCU+f4A1qI84k6fVTXwPqMXk6hdR/3JWX8iaAK/60UUDvQAUUUUAFGOKKMUAFAoFH40AAooo6UAFFAoFACClAooFABSUUtABT4W2TI3TDA/rUYpQcUAfs5pbiXS7KT+/bxN+aCvlH/golDnwR4Wl/u6iy/nE3+FfUfhSb7R4U0OXPL2Fu35xrXzV/wULh3fDHQpP7mqr+sUlAHwHRR2o9aAD60UYooABR60UCgAxRRRQACj1oHej1oAB3ooHeigAFFAoFABRRQKACnwuscqsy71BGV9RTKAM0AWUugtrPAc+W7B1How/wDrE19A/s7a3ceH9Ma2vEaGKZ/NhZujA/5/WuJ+DHwfbxzrSG/JhtImBaHHzP6Z9BX1J4g+F9umlRw2sYjaIDYVGMYqYyUtjWdKdJpTVr6nSwyrqWnbgcgijwhc/wBlXrp0RjmuQ8PavNpf/EvuTiRePrXY2MaSHLcZ6GqMjsr+/S4iJ3DpXl3iAeXfvIvbrW5q95LpwB3ZQ1xM2upcXN0jn5gMigDodAvl8xRnqa7/AEu4BPHavHvC1w0jb8nAbFen6FOWTPegDropt7VcjuCp4rHsnZ2wAa1ord2HSgCZLuXzMBjVxL+UDljVWG0YN0rRj0iaWLcq5oArtqJbg1NaX3ltnPFVrjSLmIEmNseuKqCGZD0NAHVw6+sabap31+swLDisJLedugNSeVLtIagCQyA5qldPwRUgVgDVW4zyMUAZOqfKremKZoV1mBwf4eKj1eU/Z5c9hVDQ7oJaTuTnLf0oAyviDr0Gh6FqWoXThIYYmck+gBJr85dX1KXWNVvb+Y/vbmZ5m9ixJr6c/a48ZX8elWOlQxsllfOxebPDBCPl/EkH8K+WKACgUdqBQAUCgDNFAF/QP+Q7p3/XzH/6EK+q/wBq7j4OeFh63S/+gPXyp4eH/E907/r5j/8AQhX1V+1gcfB/wr/18r/6A9AHyNSUtFABSDvS+tFABRRRQACiiigBKWgUetABRRQMfWgAFAooFABR60CigAoFFFAAKBRRQAUUUCgAo9aBRQAUlFLQACiikoABS0DmigAooooABRR2oHegAxRQKPWgAoFFFABQKKBQAUAdaKKACvpr9gi3834pXT/3YF/ma+ZK+r/+CfNv5nxB1KT0iUfrQB+jHb2r8pP2zbj7R+0d4u5+48CflClfq52Nfkj+1hcfaP2h/HD+l6E/KNB/SgDyWilFFABRR1ooABRRRigAFFJS9M0AFFGKKACigUUAIKWiigAozQKKACgd6KKACij8aBQAVv8AgB/L8X6Yen7wj81IrAHetfwfJ5XifS2/6eFH5nFAH3N8Em8zwzrsfoyn9K+FfE8XkeJNXj/uXcq/k7V9yfAl91jrsX+wpx+NfFHxCg+z+O/EMf8Adv5v/Q2NAHP4pKWigA9aBQKKAAUCk9aX1oAKKBxQOaACigUUAFJSjoaKACgUnaloAB3oxQKBQAetAoHSgUAfsH8Np/tHw58Ky5zv0q1PP/XJa8H/AG/4N/wdsX/556rEfzSQV7V8GJvtHwg8Eydd2j2v/osV5J+3jD5nwOdsf6vULdv1Yf1oA/OXFHSijsaAAdKSlooAKKKKADtQKKKADtR1FAoA60AFAoxRigAoHNFFABij1oFFAAOld18HPBw8XeLY0mjZ7O2QzSntkfdB/H+VcLX0V+ym0H9i+Lg5AcCNhkc4w1TJ2i2bUIe0qxh3aPUfgPpQk8Qa1dbCIVl2IwAAOOP6V6xrd0Yev3c9axPgN4ZdfBwusbmndnLAepNdXrujk27h14rlwitRT76nsZ3Pmx04/wAtl9yseS/Epo7OO31GLClWG4irPh3xE1/ZQyKeDjmuR+NNw9v4bW3Vyym4UE+g5/riqfwu16O405bRmHmR8Hn612Hgnq/iCYSabuzk4rxlrmZtdumyQhwteh3mqGUi3ByOlUF8I/ap9yLktzQBo+FNOLwoF6Hk16folmIo8dTXI+GtMm0z5HjO3sTXY2InjY7ELZoA6fSDFAcuB+NacmtW1tkkCuXj0u8vD/rTD9BWpp/g1rlwJZmlPoeKAEv/ABpaxAkOox6U2y8frKuIrgYB5ANdPF4CtTabPJQNjHIFeV+O/C6aFdG4t28o55C9DQB6lp3il7mHaxDgjuKswXNsWLSp1rzPwHqguSqyP+dehaiLaGEGOQPwDmgC4dWtLcMIoxz3NZN1qsTsw4GfSsKZ57u6MNuwX1c9qiuvBWoGMzJdO569OKANwTRsmAQTUU8YAzXOLa6jYfeO/FEviGRV2spyKAKviVhFbTY9KxoEa20kv1Lc4p+r3cuoMqBSELfMTVxkSW3toUOQXUHH1oA+Uv2w9Z8278O6YEEflJJNt7gcKP5GvnGvZf2sdTW9+LVzbI2VsraKEj0Y5Y/+hCvGqACikFKKADrRRQKANDw7/wAh/Tf+vqL/ANDFfVP7WZ/4tD4UHrdL/wCi3r5W8Of8jBpn/X1F/wChivqj9rbj4S+Ex63K/wDot6APkejFHrQOtAB+NJSij1oAO1Ao7UlAC0CjpmigAFHaigUAAoFApMUAKKKBSUAL0oFAozQAY60UCigAoo6UCgAo9aKKAAUUUlAC+tAoooAKKKSgBRQBRQKAAd6O1HSj1oAKPWj1xRigA9aKKKAEFLQKKADHWkooFAC0etFAoAK+wf8Agnbb7vFWsS+gVc/hXx9X2l/wTmt86nrkvoyj9KAPvY9D9K/H79o+4+1fHXx1JnP/ABNJl/I4/pX7An7rH2r8a/jZcfavjB42lznOsXX6SsKAOLopBS0AA4ooo7GgAoxRQKAD1o9aO1AFABSUvaigAooHNFABR/Oij1oAKKOlH6UAFAooFABRRQKAD1q/4efy9e05vS5j/wDQhWfVnTH8vULV/wC7Kh/UUAfdHwFfNzrMfrAD+tfH/wAYIPs/xO8Sp6Xrn8+f619b/AWX/ie36f3rY18r/HuH7P8AFzxKuMZnDfmi0AcAOKKKO1AAKKKKACjrRR0oAKKKKACiiigA9aKKMUAFFFJ+tAC9AaOlAo9aACij1oGKAP1m/Z6m+0fAvwG+c/8AEogX8lx/SuA/bih834Bao39y6tm/8igf1rsf2YpvP/Z/8DNnONPCfk7D+lc5+2hD537PniLvse3f8pkoA/MqiigUAJSiiigAooHQ0dKADrRR1pKAFA60UCjtQAUdqO1AoAKBRRQACj1oFAoAPWvQPgz4yPhXXrqFm2wX0JiJ7bhkr/UfjXn1ORijBgcEHINTKPNFo2oVPY1Y1OzTP1E/Zs1a3l+F1l5oDSKOR+JrtfEN5p0mny7V2yEd6+Wf2Ufipb6pof8AYzOI7y3ADRk4LD+8PavedWkaS3Yg5BFZ0IOFNQfQ6swrRxOKqVobSd/vPnXxOo1zxTq1jMN1pF8oB75715JZatL4M128i3FvLYx59R2Ne669pbWWpXl4VwHrxHxzpj6m2oanCMGFl3Adx0JrY889g8KT/wBp2iXRO4sAc16HohCqpxXifwh1vztIjgLZZflr27Q0/wBGBPWgD0HRDE8YEkQZe5rpIG06NSAnNcjpE3l2oz1xV2APLl88UAbzSRhyU4Fbmg3MKsTIcVxEk8g+Ve1XLOeUDqaAPQr7W7W0gdg+5scAV4l8SdZ+228gA/GurvXkaM/McV5x4yJS1l9cUAZPgrUZPt2xWwB3r1Xe8loeSTivI/A8R89WJ717DaqDa59qAKnh66DXDhjg7uc13sGoxpFgHjGCK83sRs1SZV4zhq6mBmMfXmgC1qflyqcACuemtrdWO5R+VX55HGQaz7iBpDmgDM1Fbd4mWMAMBxxWFoFyouZ5Jn2xWuXYt0HH+fyrcvrP92xH3hzXjXx28UDwv8IPETQSCG9vZltFYHDENgHH/Ad1AHx98SvEa+LPHuvauhJiurt2jJ7oDhf0ArmhRQKACgHrR0pO1AC0DpRRQBo+Gv8AkYtL97qL/wBDFfU37XHHwo8Ij/p5H/otq+WvDP8AyMWl/wDX1F/6GK+pP2uT/wAWr8Ij/p5H/otqAPkmijpR2oABSUtAoABRQKKAD1oFAo9aACgUUUAA70Yoo6UAFAoFFABRRQKAACigUUAFAo9aB0oAMUUUAUAJS0DpRQADigUCkoAWikpccUAFFAoHFABR3oo7UAFJjg0tFABRQKBQAUUUCgAooo9aACjpR2o60AFfcv8AwTmt8W+uS46yj+VfDVffH/BOe3x4e1aXHWY80AfZ78Rsfavxb+JM/wBp+InimbOfM1W6bP1mev2iuW2WszeiE/oa/E3xTP8AafE2sTdfMvJn/N2NAGYKBQKKAAUCigUAAooHcUlAC0UUUAAoooHegAooooAKMUDvSUALRR+tAoAKKBR0oABx3oFAooAQU+JtkinuCDTaBQB9ufAaX/iqWXP37Vv5V85/tLQeR8YNa/2xG3/jgH9K9++Ac+fFFgc/6y2I/NRXiP7VsHk/F68P/PS3ib/0If0oA8fFA6UUUAFHrR1ooABQKKKACj1oxigd6ACgUCgUAAooFFAB1pKUUUAHaj1pBxS0AAoopKAP1K/ZIn8/9nbwceu2GVPymcVF+1zD537P/iz/AGYY2/KVTVb9jCfz/wBnPwz32SXKflO1bH7UkPn/AAE8Zr1xYs35EH+lAH5WCigUCgAHegUUUAFAooFAB60fSkpaAEFLigUUAHrR70UdqAAUUUYoAKOlHSigA9aKBRigDrfhV4xbwP4303U95SAP5c3psbgn8Ov4V+iGkanDq2kQTpKsscqBlKnIINfmFX0z+zP8bEt/I8MazPt2YW0lY8Ff7p9x2oA9y+IenE6XMyLk4J4/GvD9PgW403UI3APmZBBr6Q8UmG50yRwQV2Ej9a+a7WbbrOoQp/q1dsUAYnwrZtO8S3Nln5RhwK+lNLmLW6bfavnfQbYad4wefHMkYH5GvoLw+pe1jI5oA7WxYiEV0GnsjRYrCtI/9HU4q5bz+URzxQB0drp32g8DIq6LBYhgdag0G9C5yetbtnam8nPpQBhXVkSjccV5R47GJTH0Br6AvdKSG1ckjgV87/Fu7W1uFCEbuaAM3w1Mq36oh4BFew6aoa159K8P8Blrm8QnqTXvul6ZIbEOAduOtAHLn9xrqDOA4Irp7YMnB5BrA8QQi3uYJh1Rxk11Wmbbm2VvYUAMe2DqWqq0ICnIrRf5c+lU7kgKaAMDVCImcj+6a+Gv2q/Fb6h4rg0ONmEFiDNIM8GR+n5KP/HjX2vr91simOecYr84fitq/wDbnxE8Q3mdwa7dFOeynaP/AEGgDlO1AFAoHSgAoFHWgUAHXNFFA70AaXhgf8VJpQ/6e4v/AEMV9SftecfC7wgP+ngf+i2r5c8LD/ipdK/6+ov/AEMV9Rftff8AJMvB4/6eB/6LagD5KFFA5zRQADmigcUDjNABR1oHeigAoHNFFABR60UUAFFHaigAoooAoAB3oFFFABQKOlFAAKBRR60AFHY0lL1oAKKKKAAUetFAoAKBRQKACkHFLQO9ABRQKPWgAFFAooABRQKKACiikFACijtRRQAUUYo9aACv0K/4J3W+3wNfSf3p2/nX56jpX6Of8E+bfy/hpK/96Zv50AfUWryCLSb1/wC7C5/Q1+I97L515cSf35Gb8ya/avxlP9m8Ja1LnHl2czZ+iNX4ndSSeaACij1oFABQKKKAAd6KBRQAAUdaMUCgAoFAooAKKPWigAFFFFAB2ooooAKBxQKBQAetFA6Gj1oASl6ZoFFAH17+z/cZ1/w839+BB+aivM/2wbfyvilG/wDfsk/RnrufgBcbdQ8KvnPyRj9MVzP7aNv5Xj/TZP79oR+Tn/GgD57/AFoooHegAooooAKMcUUYoAKBQKPxoABRRR0oAKKBQKAEFKBRQKACkopaACikFKDQB+lv7Dk3m/s8aUuf9Xe3S/8AkQn+tdn+0XD5/wADvG64z/xK5z+Sk/0rz79gubzfgIqZ/wBXqlwv/oJ/rXqHxxg+0fB7xpH13aTc/wDotqAPyQoo7UetAB9aKMUUAAo9aKBQAYooooABR60DvR60AA70UDvRQACigUCgAoooFABRRQKADpSxyNE6ujFHUghlOCD60g6UUAfTnwp+MV3rngy60/UJDLeWqlPMJ5ZccE+9ZWnszXDS/wAcmSfzryT4a3/2TXHiLbVnjK49T/nNe46RYiOzMx55AoAkhsc3sU4HzYxmvafCbhbWNT6V5fbWuPLb3r0jww2bdW7gUAekafhrYj2qByUkpNEm3R4PXFWpYQ0lAGvoZLOOeK7uwkwgCdcVxGiJsYCut067SBgW5oAtaksps5B8xOK+bfiRp011qzEgkDpX0fq3iBYoHVFHIxzXmOoWEGoXDPIoJ7cUAeY/DyaK31NoZSEdD0bivovStUhbRTDuAOM15VcfDVdXlSe0JhuE5V0FaVtomu6YqxvMpGcZPFAGp4mKzL5a8uxGAK6Hw/A8dooYYwKyNO05YWDTsZZu7t/SursZUSEjAoAq3I2qaw724wrAVsX8wwcdK5665c+lAHBfETVm0zR7yYHDRwvJz7KTX5vSzPcTSSyEs7sWY+pJr7n/AGitZNh4F1+ZX2kw+Sp92O3+tfClACij1oooAKBR2oFABQKAM0UAanhT/kZtJ/6+4v8A0MV9Qftf/wDJNfB4/wCm/wD7TavmDwmP+Kn0n/r7i/8AQxX09+2Dx8OPBw/6bf8AtNqAPkykpaKACkHel9aKACiiigAFFFFACUtAo9aACiigY+tAAKBRQKACj1oFFABQKKKAAUCiigAoooFABR60CigApKKWgAFFFJQACloHNFABRRRQACijtQO9ABiigUetABQKKKACgUUCgAoA60UUAFfpf+wTb+V8JYnx95ya/M+v1C/Ycg8n4N6ecfeGaAPX/ivcfZPhn4rmzjy9LuWz9Imr8XxX7G/Hy4+y/BXxzLnG3R7r/wBFNX44igAopRRQAUUdaKAAUUUYoABRSUvTNABRRiigAooFFACCloooAKM0CigAoHeiigAoo/GgUAFFA70DpQB9MfAa4x/wjD56Oq/kSKb+2/Bs8U6FLjgwyrn6Mv8AjWd8DJ8adoDf3bgj/wAiGuj/AG4oM3Xh6fH8Uq5+u0/0oA+V8UlLRQAetAoFFAAKBSetL60AFFA4oHNABRQKKACkpR0NFABQKTtS0AA70YoFAoAPWgUDpQKAP0Q/4J9zeZ8FNSTP+r1iUfnHGa9u+KkP2j4a+KY+u/TLkf8AkNq8C/4J3Tb/AIVeJIv7msZ/OFP8K+ivHMPn+DNdjxnfZTL/AOONQB+OmKOlFHY0AA6UlLRQAUUUUAHagUUUAHajqKBQB1oAKBRijFABQOaKKADFHrQKKAAdKKKKAAUUgo9aALmj3hsNTtrgf8s3BP0r6R0XVYrvSY9hyrAGvmNeDmvSfh/4oe2tlhkbckbAEZ6CgD320AVoield5oCFBx9015laX63Bg2tlCAQa9N0OcG2jP0oA7rShgKRWs4+YGsTS5du0Vuuy+VkdaALdtdCI9ea2rB3nHBrmLOMysT6V02kMY0xigBNQQspDGseW1wcLzWvqaOQXPFYouF80Dd3oA7PwrBFAmTIFb3pniKPzJWORn1FN0KwF0gIfaaTVrdoXYbt2O9AGGQVIzV+GUiPis+aQDjPNXrKI+VuJzQAy6fcnNY2oPsRj6Cta7GDiue1ycRRPk9qAPl39rjW/snha109W+e7uQWGf4VBb+ZWvk6vZf2pfEn9r+O4rBW3R2EPOOzucn9AteNUAIKWgUUAFFIKUUAHWiigUAa3hH/kaNI/6+4v/AEMV9Ofthf8AJO/Bw/6bf+0zXzH4Q/5GrSP+vuL/ANDFfTn7YnHw+8Gj/pr/AO0zQB8m0Yo9aB1oAPxpKUUetAB2oFHakoAWgUdM0UAAo7UUCgAFAoFJigBRRQKSgBelAoFGaADHWigUUAFFHSgUAFHrRRQACiikoAX1oFFFABRRSUAKKAKKBQADvR2o6UetABR60euKMUAHrRRRQAgpaBRQAY60lFAoAWj1ooFABX6qfsZW/wBn+DGk8YzGK/Kuv1n/AGToPs/wc0QYx+5WgDT/AGn7j7N8APHbeulzJ+Yx/WvyFr9aP2vrj7N+zr40bON1qqf99SKK/JagBaKQUtAAOKKKOxoAKMUUCgA9aPWjtQBQAUlL2ooAKKBzRQAUfzoo9aACijpR+lABQKKBQAUUUCgA9aBSUo70Ae7/AARmxo+mn+5dkf8Aj4P9a9A/bei3aN4en/6bkfmhP9K8x+Ck3/ElXn/V3n/xJr1v9s+HzvAOhT/3biM5+sbUAfHY4ooo7UAAooooAKOtFHSgAooooAKKKKAD1oooxQAUUUn60AL0Bo6UCj1oAKKPWgYoA+8/+Cc027wH4wiz93Uom/OLH9K+pfEEfnaFqEf96CQf+Omvkv8A4JxTZ0HxzFn7txav+auP6V9d6iu/T7lfWNh+hoA/GKRdkjr6Ej9abVnU4/J1G7T+7M6/+PGqwoASlFFFABRQOho6UAHWijrSUAKB1ooFHagAo7UdqBQAUCiigAFHrQKBQAetApKUfnQAUDiikoAXrWv4cvlsdRVn5jcbH+hrI65rU07RbrULeSaBQ3l87c8n1xQB7n4DvvtlsbffmSEfLz1Feu+C9ZW5tDBIQJVOK+YfAeqzWV2q5KzRdUbqVr2fwnq6zXpdG2yDDY/vCgD3rS5yu0N271vC43xcHNcfpOoLPbo2eorWtL3a+0mgDrtJOVrotPby+T0rldIuBwM10qSqsWdwoAqa/es7FV6VjWtqTKHbOM5q7duHk5PFa2lWENztDMFB70Aaem6/DYWgRIV34+93qtPqouSxYdavvoFpGM+cG+gqtJY28ZIU0AYt2gY5WrlhIVQKaSeFVfA6UxSEoAbqUoU5rz7x7r0Ok6bdXMzhIoI2kdvQAE/0rrdYvQgPPSvkn9q/4nG3tl8M2cn+kXa+ZdMp+7Fnhfxx+X1oA+avEmuT+Jdev9UuDmW6maQ+wJ4H4DA/Cs2ikoAWgUUCgAoB60dKTtQAtA6UUUAa/g//AJGrR/8Ar7i/9CFfTX7Y3/IheDR/00P/AKLNfM3g3/ka9H/6+4v/AEIV9L/tjf8AIjeDR/00P/ougD5Qoo6UdqAAUlLQKAAUUCigA9aBQKPWgAoFFFAAO9GKKOlABQKBRQAUUUCgAAooFFABQKPWgdKADFFFAFACUtA6UUAA4oFApKAFopKXHFABRQKBxQAUd6KO1ABSY4NLRQAUUCgUAFFFAoAKKKPWgAo6UdqOtAAOtfrx+zVB9n+EuiLjH7hT+lfkVAu6aNfVgP1r9hPgFB5Hwu0Nf+ndP5CgDjP23bj7P+zh4o5xvNun5zpX5V1+oP7e1z5H7O2rJnHm3dqn/kUH+lfl9QACgUCigAFAooFAAKKB3FJQAtFFFAAKKKB3oAKKKKACjFA70lAC0UfrQKACigUdKAAcd6BQKKAEFKKKQUAevfBaTGkXa5+7cg/+Oj/Cvc/2to/P+D+lzddskBz/AMBIrwP4Lyf6HqSekiN+h/wr6F/aWT7V8AraXrtW3b/x8CgD4mFA6UUUAFHrR1ooABQKKKACj1oxigd6ACgUCgUAAooFFAB1pKUUUAHaj1pBxS0AAoopKAPtb/gm/Px49hz2s3/WQV9nXIzbSj/ZNfEX/BOCbGu+Ooc/etLVsfSRx/Wvt+UZif6UAfjb4oh8jxLq8X9y8mXH0dqzK3/iBF5HjzxLH02alcr+UrVgCgAHegUUUAFAooFAB60fSkpaAEFLigUUAHrR70UdqAAUUUYoAKOlHSigA9aKBRigAFA70UUAGa7X4byFr3yXH7lm6n19K4oV2Hga9WFpITw+4OpoA9h1bwNHcGG4gAjuUXKSqOfofUVmaNNNYXUyTgwyKco47Hv+Fej6A6y/Y43+cPEDzVrVPBUd0kjRoCG7Ac5oAd4P8UM5SGU4B4z7131pqCuwRsbuxrxSHTbzw9c7XVimepHUV33h/WEulVWb5uxPegD0611L7OgOelb9lrQuYsbq81F9IMoQcVZs9Z+zMVLYNAHo4/fv1rptFtfMCivOtK19WXDEV2uh6/EFHzCgDtX0mNUGHzxWXcWnLBaik14OMh6gXVlwctyaAKV0pUkZ6VSludgyTVm7vY8MxYVy2taqGXy4mye7DtQBm67qZuZDDETknBI7CvFvit8KtP8AHsM4dTBqEH+puVHOMdD6ivZrfTykMkzjkqcZrPt7RJHkMq7kZuvocUAfnp4m8MX3hPVJLG/i8uRfusPuuPUVk+tfd/xG+E2keMLB0uoMnqsqcMp9Qa+RfiN8K9T8AXbFwbrTWOI7tBx9G9D/ADoA4rtQBQKB0oAKBR1oFAB1zRRQO9AGz4MH/FWaOP8Ap7j/APQhX0r+2OceCfBo/wBs/wDoFfNXgoZ8W6P/ANfcX/oQr6U/bIP/ABRvgwf7R/8AQKAPlIUUDnNFAAOaKBxQOM0AFHWgd6KACgc0UUAFHrRRQAUUdqKACiigCgAHegUUUAFAo6UUAAoFFHrQAUdjSUvWgAooooABR60UCgAoFFAoAKQcUtA70AFFAo9aAAUUCigAFFAooAKKKQUAKKO1FFABRRij1oAn05d9/bL6yqP1r9j/AIOQiD4daKvTFun8hX47aGnmaxYL63EY/wDHhX7K/DOLyfBGkr6QL/KgDwv/AIKFXHk/AdY8/wCt1O3X8t5/pX5o1+jf/BRy48v4O6PFn/W6xGPyilNfnIB170AFFHrQKACgUUUAA70UCigAAo60YoFABQKBRQAUUetFAAKKKKADtRRRQAUDigUCgA9aKB0NHrQAlL0zQKKAPSvgu/7zVk9oz+rV9L/G1Ptn7N5brtto2/KQV8w/BmTGpainrEp/Jj/jX1L8Qk+2fs03nfbZMfyOaAPhf9aKKB3oAKKKKACjHFFGKACgUCj8aAAUUUdKACigUCgBBSgUUCgApKKWgAopBSg0AfXP/BOWbb458Xxf39Njb8pf/r193OMo30r4C/4J2zbPip4giz9/R2OPpKn+Nffp+630oA/IT4tw+R8UvF8fTbq11/6NauTruvjvD9n+MnjVMf8AMVuD+bk1wvrQAfWijFFAAKPWigUAGKKKKAAUetA70etAAO9FA70UAAooFAoAKKKBQAUUV13gP4fXPi2cSyZgsEb5pD1b2FAGP4d8L3/ia68myiyo+/K3CKPc13EPwYe4sbl4rwmeNfk3DCO3p9K9WsPDkOk2EdlYxrDEowSBya6SPR0tbFcjagH50AfH13ZT6fdS21zE0M8bbXRhgg1t+GAI9UtGbhS4U/jXr3xM+HcOuWTX0A2ainzBscMo/hP9DXkFlDJa3SxSApJG4yD2OaAPpTwhNukhDHmIbR9K9X0CNblWDDp614p4TuTHdxhjwVFe2eG3CiNuzcUAaGqeDodSgG6MN+FcHqvge50WZpLZDJETnYOqn2r2uAKYVxT7jTUuYuVBoA8a0rWmiZUuQVI4y4rozbWmpQ7xtzj+Guk1PwhbzqT5S5PtWKPBhtuYWaL/AHTxQBnJpEkAJtrggf3W5q/aSajCAVkR/bOKmi8PX8Zyku9f9oVNDZ38EgDQBh6jigDRt9R1Qx8KvHq1P+2aqw+ZkT9aSLTdRlGUTy8+9aFv4ZupRm4nYj0WgDJlubmU7ZLhnP8AdUYrT0zRXm2yTrsQcrH/AFNbVh4dhtyCE6dzzWlLGExgdKAOZ1VfLt2A7UzT9O8yyLYzk55qbVxl2X1q1ZAwWwGOMUAZNxYHYePl7iuS8R+DrPV7aaGSJXjkBV42GQw+legSOGJxVKeyVwSRzQB8MfF34G3XhKSXUdKiabTs7nhXlofceq/yryL1r9JtY0KG9idJEDAjBr5P+NXwCuNFmuNZ0GEzWhJea1jHKerKPT2oA8JoFBGM0CgAoFAGaKANrwR/yN2j/wDX1H/6FX0l+2Rx4Q8GD/ab/wBAFfN3gcZ8X6OP+nuP/wBCFfSH7ZJ/4pPwb9W/9AFAHypSUtFABSDvS+tFABRRRQACiiigBKWgUetABRRQMfWgAFAooFABR60CigAoFFFAAKBRRQAUUUCgAo9aBRQAUlFLQACiikoABS0DmigAooooABRR2oHegAxRQKPWgAoFFFABQKKBQAUAdaKKANXwnH5vibSk65uox/48K/ZfwNH5XhTTV9IV/lX45fD+LzvGuiJ1zdR/zr9lfCyeX4fsV9Il/lQB8p/8FKLjb8O/CsOfv6qWx9IX/wAa/PcV97f8FLbnHh3wXb/3rqd/yQD+tfBAoAKKUUUAFFHWigAFFFGKAAUUlL0zQAUUYooAKKBRQAgpaKKACjNAooAKB3oooAKKPxoFABRQO9A6UAd38HpNviC6X+9bk/kwr601dPtv7OWqJ1xZ3A/Ja+Q/hI+3xUR/et3H6g/0r7F0dPtvwK1aLr+6nX/x00AfA+KSlooAPWgUCigAFApPWl9aACigcUDmgAooFFABSUo6GigAoFJ2paAAd6MUCgUAHrQKB0oFAH03/wAE+J/L+NV/H/z00af9HjNfoaehr85P2BpvK+PaJ/z00y5X/wBBP9K/RvsaAPyf/aQh8j45+NUxj/iYu35gH+teb9K9W/aog8j4/wDjNfW6VvzjQ15T2NAAOlJS0UAFFFFAB2oFFFAB2o6igUAdaACgUYoxQAUDmiigAxR60CgDPSgDtfh/8Pm8TsLm6cxWQbaAPvSeuPavonQ/Dttp1rFHGgjtoV+VFGBXLfCHw0t1ptm7tiNEGFBr1mTToiojQYjHWkncbTi7MxLG0NwzybPlzxVy7tHuykZbbGDzitSGJdvlxgY7mo1VGnKg5C9aYjE12xR7Y20aj5hgsfSvHfGHhBbLUvtQiwrrs6e/Wvd54BNcBVGc1keLPD8d7AHwMR4wKAOH8PQPE8O7+5gn3r2TwTdC5tFUnJXivOLfT3iYuVwpHFdf4Ina0c7j8rGgD1uxuFbCZretYzKmBXEWF2DODmu10i4yF75oAdLAV4IprWokTgc1v3FiHt1cDqKopb4zxQBRtbJd2MVd/sxC65UfiKZETHPyK1ElDsuOaALFtomYiwXoOtNks1ijYkYNdBp8/wDo3TiqOsGJo/lGHoAwuiGqdy2AatudgIrNvpB2oAyZI/tF6QaviIou3qBS6fb5mZ2FW549rcc0AZzwhQTVWRgc45q/JGXJFQG3HI70AZ0kaSKcCsrUNJSaJhsyD1BFb0lvg5A5qFlLAgigD5M+O/wFWWKfX9AgCzrl7i1jHEg7sB/e/nXzQVKkgjBHUGv0zvrJX3DAyeqnoa+N/wBpH4VDwlrP9uafFs0+9kIljUcRynJz9G/n9aAPFOtFFAoA3PAv/I46N/19x/8AoVfRv7ZR/wCKX8Gj/e/9AFfOfgP/AJHLRv8Ar6j/APQq+i/2y/8AkWvBo/3/AP0EUAfK9GKPWgdaAD8aSlFHrQAdqBR2pKAFoFHTNFAAKO1FAoABQKBSYoAUUUCkoAXpQKBRmgAx1ooFFABRR0oFABR60UUAAoopKAF9aBRRQAUUUlACigCigUAA70dqOlHrQAUetHrijFAB60UUUAIKWgUUAGOtJRQKAFo9aKBQB1fwni8/4jeHk65vE/nX7H6CuzR7Qf8ATJf5V+PvwPh8/wCKvhtcf8vSmv2G0obdOth6Rj+VAHxH/wAFMbkb/Atvnr9rfH08sf1r4dr7P/4KWT7vE/gmHP3bW5f83Qf0r4voAWikFLQADiiijsaACjFFAoAPWj1o7UAUAFJS9qKACigc0UAFH86KPWgAoo6UfpQAUCigUAFFFAoAPWgUlKO9AHV/C6Tb4vtx/eR1/TP9K+0vAA+0/CjWIev+sGPqpr4l+HT7PGOne7MP/HTX218JD53gbWYv9vp9VNAHwGw2swPY4pKsalF5Oo3cf9yV1/JjVftQACiiigAo60UdKACiiigAooooAPWiijFABRRSfrQAvQGjpQKPWgAoo9aBigD379hibyv2hdJGceZa3Kf+Qyf6V+lQ5Br8xv2LJvJ/aL8MDP8ArBcJ/wCQXr9OhQB+XX7X0Pk/tCeK/wDaaFvzhSvG69y/bUh8n9oHXTjG+G3b/wAhAf0rw0UAJSiiigAooHQ0dKADrRR1pKAFA60UCjtQAUdqO1AoAKBRRQACrmjW63WqWsLdHkA/WqYq5ojiLWLJmPyrOhJ9twoGnZ3Por4R30mk6rJpM/C43xEnqpNevuN7BFPy9yO9eR+MLX+yjpWp2oISHAkKn+E4zXq+g38d9pUUyEMAvJrkoNxcqb6HuZjBVIU8XD7S19UOlkKOIk4LccUotvJBHryTU2noktw87/dHAovGNxuVOAT1rrPCFskTYzKu4+tRXFq92ViPAJ5rRswkFmQB0HWpLSPcDKxx6UAZ1/oMa2OxR8wHGKr6dZNawKpHzDrXWW0ayjkbqemlrMWbGAKAKFg5BHPNdx4duyFUE9MVyNpZETlQOldBpoa3cUAepWxS4s0UEZxVe6sjbruI4rL0y8IVcHpXZxot9YgMMnFAHE3CjcWHWktLg78Zq3rdsbVzxxWbYx+ZNmgDrrK98uAJjk96rajOr9OwpkDhYueSKqTEyMaAKcrZJ5qk8RlYnsKvmIljxxUMzrDExzQA1ZYkhwD81Q/aeuTWZPe/OwAqu13tGS1AGsZsnNGzeMg1kJqiDq1OGpFs7DQBoFSAQarOcZGMe9MWd25Y4pftW7gjNAEE9mZUJHDV578VfBieMvBuraXMAJXhLRNjo45U/mK9KDEDI6VT1a1Se0kP8W3g0Afl5IjRSMjDaykgg9jTR0rU8VQm28TavERgpeTLj0w7Vl0Ab3gH/kc9F/6+o/519E/tl/8AIveDR7P/AOgivnfwB/yOmi/9fSfzr6G/bM/5APg0ez/+gigD5aoo6UdqAAUlLQKAAUUCigA9aBQKPWgAoFFFAAO9GKKOlABQKBRQAUUUCgAAooFFABQKPWgdKADFFFAFACUtA6UUAA4oFApKAFopKXHFABRQKBxQAUd6KO1ABSY4NLRQAUUCgUAFFFAoAKKKPWgAo6UdqOtAHpH7OsHn/F/w8uM4nBr9ebIbbSIeiivyV/ZcgM/xn0IYzhi1frXbjEKD2FAH58/8FI7jf8SPC8Of9XpjNj6yt/hXyHX1T/wUXufM+MulRf8APPR4z+csv+FfK1AAKBQKKAAUCigUAAooHcUlAC0UUUAAoooHegAooooAKMUDvSUALRR+tAoAKKBR0oABx3oFAooAQUoopBQBu+BpPL8WaYf+mwH55FfbvwUff4f1yPPdT+lfDXhaTy/EemN6XMf/AKEK+3/gW+631uL1RT+tAHxB4oh8jxNq8eMbLyZfydqyx0rofiJB9m8d+Io8fdv5v/QzXPUAFHrR1ooABQKKKACj1oxigd6ACgUCgUAAooFFAB1pKUUUAHaj1pBxS0AAoopKAPYf2Q5/I/aK8FnOM3Mi/nDIK/Umvyn/AGXJ/s/7QHgdx/0EFX81Yf1r9WCOT9aAPzW/blh8r493p/v2Nu36MP6V8/19Hft6w+X8cUbH+s0qA/8Aj8g/pXziKAAd6BRRQAUCigUAHrR9KSloAQUuKBRQAetHvRR2oABRRRigAoB2nI4xR0ooA+nPA90njn4b+XI26ZYzG/qCOK0/hxrrxaVLpLvm5hkMRz7E4P5V5R8AfFf9naxNpEhPl3XzJ6AjrXbatnwp46inRsQXZAb2auOr7k1UXzPocvaxOGqYR77r1R7nptpHHaAE5PelbZllQc0zTc3WmxyA/Ky9anht1AIXkmuzc+faadmMXdIREnTuatpEGYR/winR23kqcdTUlpasS2TyaBFuFlVSsdXrd1ij+ZuajtrMRRn1qxDYrjc5oAmtIklyyjmtO2gGeetVLd1Vdsa1PCzo2TxQBv2IMbL6V2+j3yCDb1NedpesENaOnak8SE7s0AdN4hjF4A6joORWNpVqr3G2myawxQjNVYdSaJiy8GgDsl0iPZl5FUfWsi/mt7eVlBG0d6x21aWUHMhqrLI8wI3ZNAE9/qyEERcVz11fyuSCSRV5rbqSKatmHPIoAyxM5B4zmmpA8jfMvFba2YAPy8U5bdV6igDJXT0UfdzUsNnGc4GCK1Y4VpJbUHlRjFAFBbc7sMeKlFmo+6cmpijOMMPxpEh8vPORQBA0ZGQBVa5RjC4bpitEIeo5FVNSmFvZTytwqIWJPsDQB+Z/xCUDx34jAOQNQn/9GNXP1f1+/wD7U13UrwnP2i5kl/76Yn+tUB3oA3/h+P8AitdFH/T0n86+hf2zD/xJPBo/2X/9BWvnv4ejPjbRf+vlP519B/tmn/iT+DR/sP8A+grQB8uCigc5ooABzRQOKBxmgAo60DvRQAUDmiigAo9aKKACijtRQAUUUAUAA70CiigAoFHSigAFAoo9aACjsaSl60AFFFFAAKPWigUAFAooFABSDiloHegAooFHrQACigUUAAooFFABRRSCgBRR2oooAKKMUetAHs/7IcHn/GvSeMhVY/yr9XI+I1+gr8tf2LLfz/jPZnGdsbGv1KXhRQB+aX/BQW48749hMg+VpVuv/j0h/rXzTX0H+3dcef8AtDasuc+VaWyf+OZ/rXz4B170AFFHrQKACgUUUAA70UCigAAo60YoFABQKBRQAUUetFAAKKKKADtRRRQAUDigUCgA9aKB0NHrQAlL0zQKKALmit5esWLf3Z4z/wCPCvt/4Eyf6bq0eesIP618M2b+Xdwt/ddT+tfbnwJk/wCJ7eL/AH7Y0AfJ/wAYoPs/xP8AE0f/AE+Ofz5/rXHV3/x8g8j4ueJB0BnDfmi1wA70AFFFFABRjiijFABQKBR+NAAKKKOlABRQKBQAgpQKKBQAUlFLQAUUgpQaAPQv2eZvs/xw8DueP+JtAPzfFfrQw+dvrX5D/Bef7N8XPBkmcbdYtf8A0atfrzJxI31oA/PD/goHDs+MOmSdN+kx8/SWWvmOvqv/AIKGw7PiV4ekx9/TCPylf/GvlT1oAPrRRiigAFHrRQKADFFFFAAKPWgd6PWgAHeigd6KAAUUCgUAFFFAoAuaLqcmjara30JIkgkDjHfHUV9I6vBF4p8Ex6tGd8uwSqR2I5r5ir3L4B+Ixf6XqGgXLj92pkj3HkqeoH0/rWVWPPBxO7A1nQxEKnZnuvgPXV1Hwlakff2DI9+9dZpFqzgsRge9eQfCDUPJv7zSpD/qJmCgn+HJxXuenptXGMA1GHnz002dOa0PYYucVs9V8yuUAkI96mt4izHHSmSQF7zj7vc1o26AtsXrXQeQPihyMGpDGSwWpobYq+CalMYimGOTQBdtLNIICx64qAAzzHHSpzIzJtFT2kGzk9aAGi0O3HarMVv5a8mpFQu1TeWTwKAIGhGOKgkhZuBxWkYuOahkIXpQBXhtCAeasxWLYJ7VJDGz4rRhYKmMCgDLe32jpk1JHaELuIxV5Y1kfnoKfMAeF6UAZbRE8AUix7QQwrSEap161G9uJORQBQMDckdKVYzg5qw26PIxxURJPUUARFMg4pgi65qyEKjOKMc9KAKxj2duK8l/ae8cL4J+GF+8Mmy9v/8AQ4MdQWByfwXJr2OVkjt3diAAM81+ff7UnxZHxD8aHTrGTfpGks0UbA8SS9Hb6DGB+PrQB4r60CgDNFAHQ/Dv/kd9F/6+k/nX0B+2Z/yC/Bv/AFzk/kteAfDoZ8caL/18rXvv7Zh/4l3g4f8ATOT+S0AfMFJS0UAFIO9L60UAFFFFAAKKKKAEpaBR60AFFFAx9aAAUCigUAFHrQKKACgUUUAAoFFFABRRQKACj1oFFABSUUtAAKKKSgAFLQOaKACiiigAFFHagd6ADFFAo9aACgUUUAFAooFABQB1oooA+iv2F4PN+L+7+5D/AFr9OQePwr81/wBgaDzPildvjO2Bf5mv0n6CgD8rf21Lj7R+0b4pGc+X9nT/AMgp/jXh4r179re4+0/tE+NW64uY0/KJBXkAoAKKUUUAFFHWigAFFFGKAAUUlL0zQAUUYooAKKBRQAgpaKKACjNAooAKB3oooAKKPxoFABRQO9A6UAKvBz+NfanwInz4lT/ppan+VfFVfYvwDuN3iDS2zxJbD9VFAHhX7S1v5Hxg1rj74jb/AMcA/pXl1ew/tWweT8XLs/37aJv/AEIf0rx+gA9aBQKKAAUCk9aX1oAKKBxQOaACigUUAFJSjoaKACgUnaloAB3oxQKBQAetAoHSgUAdH8NZvs/xD8LS9NmqWrflMtfsRJ/rG9zX41eEJvs/ivRZf7l7A35SA1+yZOTn2FAHwf8A8FFYdvjLwlLj79lMv5SD/GvkbpX2P/wUah/4nPgqX1gul/8AHo6+OOxoAB0pKWigAooooAO1AoooAO1HUUCgDrQAUCjFGKACgc0UUAGKPWgUUAA6Vs+D9ek8N+IbO+jbCq22Qeqng1jUUDTtqfSvhPUksviD5qkBLuIMDngn/Ir6RspDJbiTPBGRXxD4O8Zebc6Or5+0WbBGb++CcA/lX2Z4avPtukQP6qK4sOnCU4PufQ5nKNejRrx7WfqjZhTIZzxVvTIvK3SN3qqG4AqxJKcKq9K7T500lO9i+eBTc7mz1p0MRMNPjQAkUATWS5JLVoL7CqIIgGav2bb8EjigCzbwk8nir8caomSeaqO/lkAVKitIOTxQBL5Il5zxURt1z1qaMbBjrTZAAeeKAEyEGBipgCU4pI4125NDS7UOKAIRLsyCeactzj3qKFfOc5qeSBV6UASRgSnJNOK7Dx0qHlEOKSIseTyKALccaS5zwajktlVj3pgRicg4p3z9OtAEaxg5FRyRhQeKnX5W5rmviB4107wP4evdW1KdYba3QsTnknsAO5PTFAHj37VXxlXwD4TfSNPmxrOpqY49p5ij6M/9B7mvgf1rpviP47vfiL4uv9cvWYGZsRRE5EUYztUf56k1zIoAOtFFAoA6L4c/8jxov/Xyle9/tmn/AELwcP8AplJ/Ja8F+HHPjnRP+vla95/bNObXwf8A9cpf5JQB8x0Yo9aB1oAPxpKUUetAB2oFHakoAWgUdM0UAAo7UUCgAFAoFJigBRRQKSgBelAoFGaADHWigUUAFFHSgUAFHrRRQACiikoAX1oFFFABRRSUAKKAKKBQADvR2o6UetABR60euKMUAHrRRRQAgpaBRQAY60lFAoAWj1ooFAH1b/wT5tvM+IGqSY6QqP1r9FM4B+lfn5/wTwg3eKNalx0VRX6Ak4U/SgD8i/2lrj7V8efHMmc/8TKRfywP6V5pXc/HSf7V8ZfG8mc51i6GfpKw/pXC0ALRSCloABxRRR2NABRiigUAHrR60dqAKACkpe1FABRQOaKACj+dFHrQAUUdKP0oAKBRQKACiigUAHrQKSlHegAHNfWfwAn/AOJr4bb+9Ag/8dFfJlfUXwDuNtz4Xb/ZVf5igDjf2voPK+KEUn9+yT9GevD6+gv2zoPL8d6XJ/ftCPyc/wCNfPvagAFFFFABR1oo6UAFFFFABRRRQAetFFGKACiik/WgBegNHSgUetABRR60DFAFvSJPJ1WzkB+7Mjfkwr9m4W3wxN6op/QV+LkLeXKjDswP61+zmlSCbSbGTOd9vG35oKAPjX/go3DlPBU3o10uf+/Zr4qr7j/4KMRZ0HwfL6XU65+qD/CvhwUAJSiiigAooHQ0dKADrRR1pKAFA60UCjtQAUdqO1AoAKBRRQACj1oFAoAPWgUlKPzoAsafdmyu0mX+E8+4r7b+EHiVNd0C2EMm8bQd1fDlevfs9fEpfCevf2deyhLK5OEdjwj+n41HKubmOhVpeydF7Xv8z7RwsSjJ5qxH8+DisKyv11OaN42DRkZBHSuot4V2AVZzl22GYgKQxmN9xqzbBVwPSm3R8yQADigBojExHpWjBhE47VUtlG7FXQoCkUAShjKfarkIJXFU7RSTtrVFs0SA460ASW1qW5PaoLmDdNycCrUUhjQnNZd1cu0hCmgCWTAO0GgplMZqtFHI7ck1c2Mg5oAWCMRr1waa0vz+tNDFjxT4UJfJFAE6hZAAal8uMLgcUm3JwBVhLHahkkbHpQBXELAcc07KxpzyadLcpBE2DmvMvir8adA+GWkSXep3Y84jENrGcyyn0A/r0oA6jxf4v07wpot1qep3MdpaQIWeSQ4AH9a/PL49/Ha++LmtGKAyW2gWz/6PbngyHn529/QdqzvjB8c9d+LeoH7W5s9KibMFhGxKj/aY/wATfy7V5wKACgHrR0pO1AC0DpRRQB0nw258d6J/18rXu/7ZvEHg8f8ATGT+SV4T8NM/8J3on/Xwv9a90/bN+74QGf8AlhL/AOyUAfM1FHSjtQACkpaBQACigUUAHrQKBR60AFAoooAB3oxRR0oAKBQKKACiigUAAFFAooAKBR60DpQAYoooAoASloHSigAHFAoFJQAtFJS44oAKKBQOKACjvRR2oAKTHBpaKACigUCgAoooFABRRR60AFHSjtR1oA+0P+CdVvnUNelx0ZR+lfdrHCP9K+I/+Cddti11ybHWUD9K+2Zm2wSn0U0AfjZ8UJ/tXxL8WzZzv1a7b/yM9cxWt4vn+0+LNbm/56X07/nIxrJoABQKBRQACgUUCgAFFA7ikoAWiiigAFFFA70AFFFFABRigd6SgBaKP1oFABRQKOlAAOO9AoFFACClFFIKAF7V9H/Ai4xB4bfP3Zdv/jxFfOAr374Gz7dN0Vs/cuSP/IlAGr+2xBt8S6BKB96GVc/8CWvmwdK+o/22rfMnhyfHeVc/UKf6V8uUAFHrR1ooABQKKKACj1oxigd6ACgUCgUAAooFFAB1pKUUUAHaj1pBxS0AAoopKAFFfsl4Qm+0eEtDlznfYwNn6xrX42iv2E+Gc32j4b+FJc536Vat/wCQloA+bP8AgopDu8D+F5cfd1Jl/OJv8K+Dq+/v+ChkO74YaFJ/c1ZR+cUlfAIoAB3oFFFABQKKBQAetH0pKWgBBS4oFFAB60e9FHagAFFFGKACjpR0ooAPWigUYoABQOPaiigD3r4E/HQaCw0jXrgmA4WC5c8L/ssf619beHNbtdZt1kgnSVSOqMDX5nV0vhT4jeI/BchbSNUmtl7xE7kP/ATxQB+mVs6knGDSxoZJiSOK+HvDP7X/AIq0YFb+0tdSX1BMTf1r0LRP23IFjLXfh25wuNzQSK4H54oA+qoYdshIWrUMZlYgDkV4l8N/2lLT4nX81lpWnzQXEYBK3RC5B9ME16zbDXY4zM0MCqfWQ/4UAb1vF5MgJGa2EiaYLwce9cXDc6tcEkCFD7sa0oY9bSMyG5twB23mgDduotjbMYrOurfyTwM1lyXWsyy4L2rehMh/wp8n9sFefszY7iQ/4UAadvC5UuQQB3qeONrrOzkD0rIR9dMRCRQsvs5P9KkhuNdhQgWq4/2SR/SgDctNJeRjgZ+ta1po6oMuvWvOr7xZq+jh5HticDJ2Pk1yep/Hi9hjdYLSRpfSRsAUAe4y2NtaB5DIAR2zXO674ktrO1aSWZIo0HJZgAK+bvEnxf8AHOoWc66ObK2uiMoLiNmB9s5FfJPj/wCKXjTxXe3Np4h1e5fy3Mcloh8uMEHBG0dfxzQB9U/Gf9sDSvD9tPpvheSPVdUIKeevMMJ9c/xH2FfGPiLxJqfivVJtR1a8lvryQ5aSVs49gOgHsKzRR2oAO1AFAoHSgAoFHWgUAHXNFFA70AdN8Mx/xXmiD/p5H9a9x/bNP/IoD/phL/7JXh3wx/5H3RP+vgfyNe4ftmn954QH/TCX/wBkoA+aRRQOc0UAA5ooHFA4zQAUdaB3ooAKBzRRQAUetFFABRR2ooAKKKAKAAd6BRRQAUCjpRQACgUUetABR2NJS9aACiiigAFHrRQKACgUUCgApBxS0DvQAUUCj1oABRQKKAAUUCigAoopBQAoo7UUUAFFGKPWgD70/wCCd0GPDWrS4+9MRX2BqL+Xp9yxPSNj+hr5P/4J6QbfAd/J/euG/nX1L4nn+z+HNUlzjZbSN+SmgD8X9Sl8/UbuT+/K7fmxqtSu25mPcnNIB170AFFHrQKACgUUUAA70UCigAAo60YoFABQKBRQAUUetFAAKKKKADtRRRQAUDigUCgA9aKB0NHrQAlL0zQKKADHUV7h8EpsaRZ8/cvMfqDXh/617F8FJcaRJz9y7z+i0Aen/tpxb9A8Ozdf35GfqhP9K+Tq+vf2xIvO+H2hT9dtzHz9Y2r5CHegAooooAKMcUUYoAKBQKPxoABRRR0oAKKBQKAEFKBRQKACkopaACikFKDQAV+uvwVm+0/B/wAEy/3tHtf/AEWtfkVX6zfs8Tef8CvAj5z/AMSmAfkuP6UAeTf8FAYfM+Dli/8Azz1WI/mkgr88q/Rv9vOHzPgbI+P9XqFu36sP61+cnrQAfWijFFAAKPWigUAGKKKKAAUetA70etAAO9FA70UAAooFAoAKKKBQAUUUCgA6UUDpRQAetAoA60CgAFe0fCLwxpN54da/nKSTFyJFJyVweK8XrQ0fXr7QpjJZztFu+8v8LfUUAfYHwv0O10rVRqVpCq54BUYzzXt0/iG+uYNqk4xge1fLfwY8fX11pwCoshB/1bcH3we9e16R43mnJQ25yOq9xQB1outSC/KxGe9T/wDE3lTHnMM1m2nihZWAeJkYdiK6Wy8VRJHgwk++KAMqGy1XfgTOxPsa04dE1VhueRyPUVpWHihEk3JCCfcVqnxpKy4CqF9AooAybaHULZMBpM/U1s6fdakikFm59aj/AOE4kUf8e4OO/l1Rn8VXFwWMcTlj7YFAE+pWEl05WU8muYv/AAfZDc8gXPvVybUNTlY4A3Hue1c14nnubOwurm4neQQxl9inAJGeKAOY+Jfijwz8OPDk95fNGZMEQwpjfK/YAf5xXwXrmry69rN9qMwCy3UzTMo6DJJx+FaHjTxrqfjnWpdR1KcyMSRFFn5Ilzwqj/OawRQAUCikoAUUetFFABQKO1AoAKBQBmigDqPheM+PtE/6+B/I17Z+2b/x8eEf+veX/wBkrxT4XD/iv9E/6+B/I17T+2Yf9K8JD/p2l/mlAHzbSUtFABSDvS+tFABRRRQACiiigBKWgUetABRRQMfWgAFAooFABR60CigAoFFFAAKBRRQAUUUCgAo9aBRQAUlFLQACiikoABS0DmigAooooABRR2oHegAxRQKPWgAoFFFABQKKBQAUAdaKKAP0V/YCt/L+GEr/AN6dj+tfQXxJuPsvw98TT5x5enXDZ+kbV4f+wnB5Pwkhb++5Neu/G64+y/CDxpNnG3SLo5/7ZNQB+PdAo9aQUAFFKKKACijrRQACiijFAAKKSl6ZoAKKMUUAFFAooAQUtFFABRmgUUAFA70UUAFFH40CgAooHegdKAAV6v8ABiTGnXy/3Z1P6f8A1q8or0/4MSfutUT0aNv/AEL/AAoA95/arj+0fB7TZsZ2ywHP4EV8bV9o/tFxm6+AUMnUqLdv/HwK+L6AD1oFAooABQKT1pfWgAooHFA5oAKKBRQAUlKOhooAKBSdqWgAHejFAoFAB60CgdKBQACv1X/Zfm8/9n/wO2c4sAn5Ow/pX5UD6V+pH7I0/nfs7+DznO2KVPymcUAYH7ccPm/ADVGx/q7u2b/yKB/WvzW6V+m/7aMHnfs+eI/9l7dvymWvzI7GgAHSkpaKACiiigA7UCiigA7UdRQKAOtABQKMUYoAKBzRRQAYo9aBRQADpRRRQACikFHrQAtA6GiigAoorc8OeGZtYZpmBjtI+rn+I+goA9V+CYeDSEfGC0p2k/WvoPT0X7REw4ZhyRXk3w88Omy0+yi27EQZwfrXr2lwq0y45HSgDvNE0+O5I3qCR3xXQwaTFG+CgwaydEUW4XJ9K6eO4i+U9TQAW+gxbtyr1q7FoA67OlT2l7ECOOK14NctkjZNgLUAZMeh7j9zP4VFLYxwkrtAIroIvENsnHlAeprF1S7jeZpUOFPagDKliCxOcVyniu3WXTyrDMbHD/QjFdJd3yhWArndRu47mGWF8cjFAH54fFTwNN4E8W3lmVzZyMZbWTHBQk8fUdK48V9qfE3wXYeLbCWy1CAll5inUfMh9Qa+XPE3wt1jw/cOsaC+twflki649x/+ugDjqKfNDJA5SVGjcdVdcGmUAIKWgUUAFFIKUUAHWiigUAdT8LP+R/0T/r4H8jXtH7Zh/wBN8Jj/AKdpf5rXjHws/wCSg6H/ANfA/ka9l/bL/wCP/wAKf9e0v81oA+cKMUetA60AH40lKKPWgA7UCjtSUALQKOmaKAAUdqKBQACgUCkxQAoooFJQAvSgUCjNABjrRQKKACijpQKACj1oooABRRSUAL60CiigAoopKAFFAFFAoAB3o7UdKPWgAo9aPXFGKAD1ooooAQUtAooAMdaSigUALR60UCgD9N/2Jrfyvg1pxx94Z/Wu5/aPuPs3wK8dPnH/ABKbhfzQj+tct+x9B9n+DGj/AO1GDWt+1bc/Zv2ffGjZxus9n5uB/WgD8oqKBSUALRSCloABxRRR2NABRiigUAHrR60dqAKACkpe1FABRQOaKACj+dFHrQAUUdKP0oAKBRQKACiigUAHrQKSlHegAHNejfBl8XWqL6pGf1b/ABrzmu/+Dr41i+T+9AD+TD/GgD6Y+Mafa/2dJW67beNvycV8UV9v+O0+1/s46h32WbH8jmviDtQACiiigAo60UdKACiiigAooooAPWiijFABRRSfrQAvQGjpQKPWgAoo9aBigAFfpz+xbP5/7Onhv/Yluk/8jtX5jV+lf7Dc3m/s96Wv/PO9ul/8iZ/rQBtftdw+d+z94sH92KNvylWvy6r9U/2pIfO+AnjMY6WJb8mB/pX5WCgBKUUUUAFFA6GjpQAdaKOtJQAoHWigUdqACjtR2oFABQKKKAAUetAoFAB60CkpR+dABQOKKSgBVUucAZNa1h4fkuDvnPkx/wDjx+gp/hXRZNa1MRpnag3HH6CvXNI8C/Zdr3JWMYztUc/iaAOD0zwJJqcsaRwGOAHJdj8zV6doHhHyzHCFGyP0HArVtYVt0Mdum1MYL1Z/tEQx/Z7OMvKerY6UAb9kVtisUWC3TNdzpLpb26AnJHJOa8+0C28ljLcygv6V0Ud80zbVbKjsKAPQrLV/M24bpXQ2upDAyTXnOmzlRnsPetFNYYMVVsn2oA9EXVwEOD+VS2+qDBJNcJb6mQNzkt7VZTWt38JAoA7U6lgnmoZNU35G7FcgdTlfOCcelRveO+f8aAOgu70NkbqwdQkMucPtI7iqb3Ny3CgAetJGjnPmNk+1AGdcwtMhEjiSuR1jw3DflsEK3oeDXoL2ccykL1qo/hqW8OFbJ9GFAHhXiP4dWd+rJcwLIOzbfmH0I5FeK+OfAFx4SkSdGM+nynasmOUP91q+3k8BOx/fKQPbmvPvj54VstN+GGtSSBN8YQox67t4x+NAHxtQKKBQAUA9aOlJ2oAWgdKKKAOr+FXPxC0P3n/oa9j/AGy/+Qj4V/69Zf5rXjnwo/5KFof/AF3/AKGvYv2yjnVPCo/6dZf5rQB85UUdKO1AAKSloFAAKKBRQAetAoFHrQAUCiigAHejFFHSgAoFAooAKKKBQAAUUCigAoFHrQOlABiiigCgBKWgdKKAAcUCgUlAC0UlLjigAooFA4oAKO9FHagApMcGlooAKKBQKACiigUAFFFHrQAUdKO1A54oA/Vn9lm3+z/B3Q1/6YiqH7ZVz9n/AGd/FZz99YE/OZBW9+znD5Hwn0JcY/0dT+lcd+3JP5P7PWtqOPMuLVP/ACMp/pQB+ZAooFFAAKBQKKAAUCigUAAooHcUlAC0UUUAAoooHegAooooAKMUDvSUALRR+tAoAKKBR0oABx3oFAooAQUoopBQAvau2+ET7fEsy5+9bN/6EtcSK6/4VPs8WIP70Lj+R/pQB9b6lH9t/Z61ePriznH/AI6a+GR0r7u0VPtnwV1eHqfJnH/jpr4RoAKPWjrRQACgUUUAFHrRjFA70AFAoFAoABRQKKADrSUoooAO1HrSDiloABRRSUAKK/Rz9gqbzfgRsz/q9UuF/MIf61+cYr9Df+Cfc/m/BnVI858vV5B+ccZoA9U/aMh8/wCBvjdMf8wuc/kpP9K/J6v1v+OEH2j4P+M4+u7Sbn/0W1fkgKAAd6BRRQAUCigUAHrR9KSloAQUuKBRQAetHvRR2oABRRRigAo6UdKKAD1ooFGKAAUDvRRQB1fw48QQ6Drm+4H7uQBc+hzXvvh/WbDV98rsp+YLjrivlcZBrc8P+L73QZWKsZY2GGRj/WgD7BvdPhmghggRUV8ZYDmrUngZLa1QRcMw5c9q8J0H482xtY7e9EluyY2yFdw/SvYfCHxk0bX7VbZ72FpQMcOOfwoA3bXwJHDD5mTK7evetCz8EXDgH7v+yBVnTPE8MPJdZIx/EDXU2Xiq1YArIh9s0Ac4ng692kDge9WLTwVdqTnr7Gutg8UWbSfOVANb9lrdiRkNGw/CgDhrfwbdhc4JqdfCF03Xj2r0VPElrCnyxRH8Klh8WwEjMETD3WgDz6HwNdNktux64qwngScDPzflXoTeL8LhIo1X0C1DP4wMqbQEUewoA4+DwLI3VT9cVOPBSxH94ufrWy3ivy93zCs+68VqoLSOAO2TQA1PC9ra/OVGKkews4hkKAR3rktf+KGk6bG0l9qdtaRLzmSQCvHfHP7XHhrS4pIdLMus3A4AhG2PPux7fTNAHtviTxNZ6NbSyPKiRopyzHAH1NfFn7QXxoTxxMNF0qXzNMhk8yaZekzjpj/ZHr3NcN4++K/iD4h3kj6hdNFaE/JZwkiNR7/3j7muO7UAHagCgUDpQAUCjrQKADrmiigd6AOr+FI/4uFon/Xf+hr1/wDbIOdV8Le1rJ/Na8h+E3/JRND/AOu//spr1z9sc/8AE48Lj/p0k/8AQloA+dxRQOc0UAA5ooHFA4zQAUdaB3ooAKBzRRQAUetFFABRR2ooAKKKAKAAd6BRRQAUCjpRQACgUUetABR2NJS9aACiiigAFHrRQKACgUUCgApBxS0DvQAUUCj1oABRQKKAAUUCigAoopBQAoo7UUUAFOhXdKg9WApuKnsF3XtuPWRR+tAH63/A6H7P8MtCT0tk/kK8t/b3n8r4ESpnmXUbdf1Y/wBK9f8AhNEIvh/oq4xi2T+Qrw7/AIKFXHlfBvTos48zVoh+UcpoA/O0UUetAHXvQAUUetAoAKBRRQADvRQKKAACjrRigUAFAoFFABRR60UAAooooAO1FFFABQOKBQKAD1ooHQ0etACUvTNAooAMdRXT/DWTy/F9kP7wdf8Ax0/4VzH61v8AgB9ni7TT/tkfmpFAH2n8Px9p+GesQ9eJB+amvg512Oy9wcV94fCZvN8IaxF/tH9Vr4X1KLydRu4/7krr+TGgCtRRRQAUY4ooxQAUCgUfjQACiijpQAUUCgUAIKUCigUAFJRS0AFFIKUGgAr7+/4J3zb/AIXeJYv7mr5/OFP8K+Aa+8P+CdE2fA/i+LP3dRibH1jx/SgD6N+KsP2j4aeKov72mXI/8hNX5BV+xXjmH7R4L12PGd9jOv8A441fjrjrQAfWijFFAAKPWigUAGKKKKAAUetA70etAAO9FA70UAAooFAoAKKKBQAUUUCgA6UUDpRQAetAoA60CgAFAYqcg4I6EUUUAbOneM9d0oYtdVuo1/umQsPyOa6jSfjdr9gf9IZLxR3PyN+n+Fee9qXtQB7JB+0behAsti5H+zNn+lXrb9paWDpa3C/SQf414ZQOKAPoa1/apaFuYLofkf61tWn7XEKriSO4x7xg/wAjXzAKBQB9R3v7YCRRf6PDNOx7eWFA/M1zGoftea9NuFtYRxjsZJM/oBXgdHSgD1bUf2mvG9+GCXcFsD/zyjyf1JrltR+LPjDVQwudfvGB7K+wfpiuSFFAE1zeXF7IZLmeSeQ9WlcsfzNQCloFABQKKSgBRR60UUAFAo7UCgAoFAGaKAOt+En/ACUTQ/8Arv8A+ymvWv2xsDXPDI9LST/0IV5T8H4Xk+IujFEZgspLbRnA2nmvV/2yFKa74Z9fscmf++hQB870lLRQAUg70vrRQAUUUUAAooooASloFHrQAUUUDH1oABQKKBQAUetAooAKBRRQACgUUUAFFFAoAKPWgUUAFJRS0AAoopKAAUtA5ooAKKKKAAUUdqB3oAMUUCj1oAKBRRQAUCigUAFXNETfrFivrPGP/HhVOtPwunmeJNLTrm5j/wDQhQB+vXw8i8rwZpSekCD9K+cf+Ci1xt+GvhyLP39VDflFJ/jX0v4Oj8rw1py+kKj9K+Vv+Cjk+PCvg+HP3r2Z/wAkx/WgD4SoFHrSCgAopRRQAUUdaKAAUUUYoABRSUvTNABRRiigAooFFACCloooAKM0CigAoHeiigAoo/GgUAFFA70DpQACtjwdJ5fijTG/6bqPzOKx60PDz7Ne05vS5j/9CFAH278GGD6RrMfuD+lfEvimLyfE2rx/3buVfydq+0/go+V1ePrlFNfHPxDg+zeO/EMfTF/N/wChmgDn/WgUCigAFApPWl9aACigcUDmgAooFFABSUo6GigAoFJ2paAAd6MUCgUAHrQKB0oFAAK+4f8AgnJNnQ/G8WelxbP+auP6V8PD6V9pf8E4rj5/HcGf4bR/1kFAH2J4hi87QdRjx963kH/jpr8apF2Oy+hxX7Oaiu/T7lfWNh+hr8atSj8rULtP7srD9TQBXHSkpaKACiiigA7UCiigA7UdRQKAOtABQKMUYoAKBzRRQAYo9aBRQADpRRRQACikFHrQAtA6GiigAoooHegBKBS0etAAOKBSCloAOtFAqSC2luG2xRvI3oikn9KAI/WgVtWXgrX9QIFvo97Jnv5DAfmRXR6b8C/GupH5NGkiB7ysBQBwWeKK9m0z9lTxheYMzW1sD33Fj/IV1Gm/sdXjAG+1kJ6iOMD+ZNAHzjQK+sbL9k3wxYru1DVpZQOu+UKP0rRi+Efwp8PL/pVxaSFevnS7/wCZoA+PQPSrdro9/ef8e9lcT56eXEzfyFfXJ8T/AAd8MgiE2Jde0UYz/Kqdx+0n4B0oFbHTpJyOm2HAoA+b9P8Ahd4r1LHkaHdkHoWTb/PFdNp37OXja/wTYx24P/PWT/AGvTL79r+2j3LYaBj0MjAVzGoftb+J7jcLaytbUHofvUAO079knxHPg3V/b24PXapb/Culsf2QrSIA32tye4Tao/rXl+oftEeONQDA6r5APaJMYrl774i+JtSz9p1q7kz1/eY/lQB9JW/7OvgDSBuv9QEhHXzbjH6A1OdE+D3hrmWTTmZe5Ac18mT6jd3OfOuppc/35Cf61XFAH12fjT8L/DhzZQLKwGAbeGvMNT8VaF8SZZFvJjNLuPlrckh1Gf4T/hXidHI6cUAd7rfwtmh3S6bN56f88pOG/A9K4m90+50+YxXMLwyDs64zW3ofjzVNHwnm/aoB/wAs5jnH0PWu4svF+heKYvs99GkUjcbJwME+xoA8l/Gkr0rWPhZFMrS6VcBe4ikOVP0P/wCuuE1TQ77R5Cl5bPF6MR8p+h6UAUe1Ao7UlAC0CjpmigAFHaigUAAoFApMUAKKKBSUAL0oFAozQAY60UCigAoo6UCgAo9aKKAAUUUlAC+tAoooAKKKSgBRQBRQKAAd6O1HSj1oAKPWj1xRigA9aKKKAEFLQKKADHWkooFAC1u+Ao/O8Z6KnXN1H/OsKuq+FcXn/ETw+mM5u0/nQB+uXhxNmiWQ9Il/lXx7/wAFHrjEHgiDPV7p/wAhGP619j6OuzTLUeka/wAq+Jf+CjtwTrngmDP3be6fH1aMf0oA+OKKBSUALRSCloABxRRR2NABRiigUAHrR60dqAKACkpe1FABRQOaKACj+dFHrQAUUdKP0oAKBRQKACiigUAHrQKSlHegAHNWdLfy9StH/uzIf/HhVanQtslRvRgf1oA+3PgjJ/xMNRT1hB/WvlH4wQ+R8TvEqf8AT45/PmvqT4Iy/wDE8uF/vW9fNPx5h8j4teI16ZnVvzRaAOBFFFFABR1oo6UAFFFFABRRRQAetFFGKACiik/WgBegNHSgUetABRR60DFAAK+wv+Cckv8AxUHjeLP3rS2b8nf/ABr49r61/wCCdU+3x34siz9/TUbH0lH+NAH3XcDdbyj/AGTX44+J4vI8S6vH/cu5V/J2r9kHGY3HqK/Hvx9F5HjrxJH/AHNSuV/KVqAMClFFFABRQOho6UAHWijrSUAKB1ooFHagAo7UdqBQAUCiigAFHrUtvaT3R2wwySt6Ihb+VbFj4D8RakcW+i3snofJKj8zQBhetAr0HTfgJ431PG3R2hB7yuB/LNdXpf7JfjG9AM721uPbLn+QoA8ToHFfTGmfsX3bKDf6xt9fLQL/ADzXS2P7IfhaxXdf6rJLjrvmC/yxQB8hdaAMnA5PtX2lD8HPhR4eH+lTWUhXr5sgf+ZqQ+Jvg54WUrG9juXtGgoA+N7TQdSvSPs+n3M+f+ecLH+Qre0/4T+LtSx5GhXRB7uoX+dfTd3+0x8O9IBWysGnI6bIuKwL/wDbJsYQw0/w+T6M5AFAHlem/s0eN7/GbKK3B/56Scj8hXV6Z+x54iuMG61GGAdwsZP6k0al+2L4luMi0sLa2HY9TXJan+0t461Ld/xM1gB7Rpg/zoA9W0/9jaxiwb/W5fcLtUfyrbt/2bPh7o3N7epIV6ma4P8ALNfMuofFLxXqe77Rrt24PYPj+VYU+sX93kzXtxLnqHlY/wBaAPsH/hH/AIOeGBmR9O3L3wGP51HL8ZvhToAItY45tvQQxA18bZJ6migD6xvf2tPC9kCNP0SWX0O0L/Oub1H9se/YEWGiQxDt5jf4V85DJoFAHsmpftV+NL3Ihkt7QH+6ma5XUvjd411Qt5uuToD/AAxnArhaKANa78W61qBJuNVu5c9cytWZJNJMxaR2c+rHNMoFAAKKKSgBaBRQKACgHrR0pO1AC0DpRRQAUUUDmgAoo6UdqANrRPF+p6GwEE5eIf8ALKXlf/rV3ulfETStbi+z6nCtu7DB8wZQ/j/jXlFAoA9V1b4ZadqkZn0uYW7MMgKd0Z/wrgda8J6noTN9ptiYx/y1jG5Pz7fjUej+I9R0Rw1pcsi55jPKn8K9A0T4qWd4oh1WAQseDIPmQ/4UAeWetAr2HUPAOieJYTcWEiwSNyHgIKn6jpXBa78P9X0QsxhN1AP+WkIzx7jqKAOboFGOcd6KAAd6MUUdKACgUCigAoooFAABRQKKACgUetA6UAGKKKAKAEpaB0ooABxQKBSUALRSUuOKACigUDigAo70UdqACkxwaWigAooFAoAKKKBQAUUUetABXbfBWHzvil4cXH/L0tcT2r0T9nuH7R8XfDy9f34NAH6waeu2yhHogr4R/wCCitxv8d+Fof8Annp8jfnJ/wDWr7vtRi2jH+yK/P3/AIKEz+Z8WNGh7R6Sp/OWT/CgD5cFFAooABQKBRQACgUUCgAFFA7ikoAWiiigAFFFA70AFFFFABRigd6SgBaKP1oFABRQKOlAAOO9AoFFACClFFIKAF7UCgUUAfY/wOmzr0Bz9+2/oK8G/aSt/I+Lms8Y3iNv/HAP6V7T8CJ92r6Q39+1H/oIryb9qeLy/ixcnpvtYm/9CH9KAPIaPWjrRQACgUUUAFHrRjFA70AFAoFAoABRQKKADrSUoooAO1HrSDiloABRRSUAKK+pv+Cec+34q69F/f0hj+UqV8sivpn/AIJ/s8fxnvQVOyTSJ13Y4yHjP9KAP0KblTX5DfFiD7P8UPF8f93Vrof+RWr9ea/ND4n/AAK8XeIvip4subLTv9Fm1OeSOWR8BlLk54zQB4WO9Ar3LSv2Q/GN9gzSQW4PoGf/AArrtL/Ymu3AN9qzL67FVf55oA+X6BX2PY/se+FbAbtQ1NpMdd8+P5YrXg+C3wn8PLm5nsXK9fMYOf1NAHxCO+K0LPw9qt/j7Npt1OD0McLEfyr6w+IGpfCLSPDN5a2TWrXjIViECqCD2P8AKoPDP7RngPwt4dtLd7Hz7yNAG2JuGfwrPmfPy2Or2MfYe25tb2t19T51074ReMNSx5OhXOD3cBf5mup0z9mLxxqBBNpDAD/fc5/QV61qP7aOm2+5dO0An0ZgBXK6n+2f4kn3Cz0+3t1PQk8itDlG6X+xp4iuMG71CKEdwkZP6k11enfsXWMOGv8AWZT6jcqj+VeUan+1D471LdjUEgU9kXkfrXKaj8XPF+qbvP126IPZWwKAPqC1/Zk+Hmi/NfXsUhHXzZyf61eXw38HPCwLO+nbl7hVJr4wudf1O8JM+oXMueu6Vj/WqRJYksSx9TQB9rT/ABm+E2gKRbrFOV7RIDWPfftdeEbBSun6LJNjplNv86+QOlFAH0xqP7aN4QwsNDii9PMYf0rlNT/a38aXu4QGC0B/ujOK8SFGKAPQNS+PXjjVM+ZrcsYPaLiuZvfG2v6iSbnV7uTP/TUj+VYtFAEs11NcEmWWSU+rsT/OovWkpR3oASl9aM0UAAoFApKAFooHSigAooxRQAUUUDvQAUUUUAAoFApBQAtHrQKO1AB2oAoFA6UAFAo60CgA65oooHegAx2o7UUetAAKKBzmigAHNFA4oHGaACjrQO9FAFzTNZvdHl8yzuXgbuFPB+o716DoHxcVgsOrQcdPOiGR+IrzKigD2y78MeHfGsBuLcxiVh/roCAwPv8A/Xrhdf8Ahdqmlb5LYC+gHPyDDgfTv+FcpY39zp0wmtZ3gkH8SHFd94f+L1xb7YtUhFwnTzYxhvxHegDzySJ4nZHVkdeCrDBFNr3Rrbwz49t9y+VJLjqp2yL/AFrjNf8AhBe2QaXTZReRj/lm/D/n0P6UAefUVNd2VxYzNDcwvBIOqSKQahAoAB3oFFFABQKOlFAAKBRR60AFHY0lL1oAKKKKAAUetFAoAKBRQKACkHFLQO9ABRQKPWgAFFAooABRQKKACiikFACijtRRQAV6n+zFB53xl0MYzhya8sxXsf7JcHnfGjSv9lXP8qAP1Di4iQDpivzr/b6n8743wpn/AFelQD83kNfoon+rFfmz+3Pced8fb9c/6qytk/8AHSf60AfP4oo9aAOvegAoo9aBQAUCiigAHeigUUAAFHWjFAoAKBQKKACij1ooABRRRQAdqKKKACgcUCgUAHrRQOho9aAEpemaBRQAY6iij9aBQB9TfAaf/TPDhznMCr/47/8AWrhv2uLfyviXBJj/AFlkn6M9dT8B58N4bfP+z/MVkftjwBPG2kyY+/aEfkx/xoA8AooooAKMcVYttNu7zi3tZpz/ANM4y38q2rH4deJtRx9n0S8f3aMr/PFAHO0CvR9N/Z78b6ljGliAH/nq/wDhmuu0r9kDxffAGeWK3B/uoW/woA8KFFfU2l/sQXjgG+1SRPXaqr/PNdRYfsceFdPAN/qW8jr5lxj+VAHxjSqjOcKCx9AK+54fgl8J/DwzdXFgzL/fwx/Wpm8QfBvwqpAltcr2RVFAHxHaeGNXviBb6Xdy5/uwMR/Kug074OeMdSI8rQ7gA95ML/Wvqq8/aX+GWiqRZ2QuCOhVc5rn9Q/bV0i1BGm6Bu9CVA/nQB4/pf7LvjfUCN1tDAD/AHmJP6Cuw0r9izxDc4N1frGvcJF/UmpdU/bZ8RTgiy06G3U9MnGK4/Vf2q/HepFgt6kCnsq0Aer6b+xPYQYOoavIfUGRVH8q6C0/Zf8Ah3oo3X17A5HXzZy36Zr5a1H4x+MdVz52uXOD2VsCueufEuq3pJn1K6kJ9ZW/xoA+1k8LfBzwsCXlsNw7qq5rtvgz46+H2peP7XSvDLRPqBilbMePuBTn+lfnG8jSMWd2ZvVjk17x+w/N5X7QWkDP+stblP8AyGT/AEoA/SqviT4u/tX3vgjx7r2g2mkxs9jctF5rY+buD+tfbXavyv8A2pIPI+PnjNT3u1b840NAHR6p+2F40vdwgENqD0281x+p/tCeOtU3eZrMkWf+eQxXnOKKAN6+8feI9SJ+06zdyZ/6aEfyrInv7m5J864llP8AtuTUFAoAMUUUUAAo9aB3o9aAAd6KB3ooABRQKBQAUUUCgAoooFAB0ooHSigA9aBQB1oFAAKKKKACj1pO1L2oAKKSgcUAL0ooFAoAKBRR0oABQKBRQADikFLQKACgUUlACij1oooAKBR2oFABQKAM0UAFAFGOtA70AFJS0UAFIO9L60UAFFFFAAKKKKAEpaBR60ASW9xLayrLDK0Ui9HQkEV3Hh34t6jpu2O/UXsI4LdHA/ka4OgY+tAHvNrq/hnx5beTIIpHx/q5Rhx9P/rVy/iD4MMoabSLjcOvkzH+Tf415gjtG4ZWKMDkMpwRXYeHPilq+i7Y53+3W4x8sh+YD2P+NAHNapot9o0xivbWS3btuHB+h6GqXrXvWk+NfD3jKD7NciNJHGDBcqBn6djWR4g+DNpeK0+kT/ZnPPlN8yH+ooA8coFa+ueE9U8OuRe2jIg4Eqjch/GsigAFAoooAKKKBQAUetAooAKSiloABRRSUAApaBzRQAUUUUAAoo7UDvQAYooFHrQAUCiigAoFFAoAK9z/AGNbfzfjLZt/diavDK+g/wBiODzfi5uxnZB/WgD9IlOV/CvzI/bOuPP/AGhPEYzny0t0/wDIK/41+mwPFflv+1nP9o/aD8Yn+7PEn5QoP6UAeR0Cj1pBQAUUoooAKKOtFAAKKKMUAAopKXpmgAooxRQAUUCigBBS0UUAFGaBRQAUDvRRQAUUfjQKACigd6B0oABRRRQB7T8NPG2neENG0S8vpwoilP7scsQHOeK9i1Lwz4Z/aP1i1lkmktJLSElA0m3ehOSf5V8aV3nw88VzWjNYNcyQFlKxSo2GAPUZoA+orT9lz4e6KN15eWz46+bMX/ma0YvCfwf8LjLTWG5f7iLmvjTxPqWvWWpS217qd1NjlX8wgOvY1z0k0kxzI7SH1ZiaAPuib4wfCLw6CsXlTsv8K4rFvf2vfBGm5Gn6P5pHTMZr4t9aX1oA+q9R/bglXcunaGkQ7EgAVyOq/tl+Mr3eIEhtlPTBzXgQ4oHNAHpmqftGeOtUyH1dowe0Yx/WuVv/AIi+JtSz9o1q7kz/ALeP5VzoooAsT6neXWfOuppc/wB+Qn+dV6B0NFABQKTtS0AA70YoFAoAPWgUDpQKAAV7X+xpP5H7Q/hjnG/z0/OF68UH0r1z9kufyP2hfBh6ZuXX84nFAH6j1+Xv7XcHkftB+LP9qSFvzhSv1C/wr8zP20IfK/aA149N8Vu3/kID+lAHh46UlLRQAUUUUAHagUUUAHajqKBQB1oAKBRijFABQOaKKADFHrQKKAAdKKKKAAUUgo9aAFoHQ0UUAFFFA70AJQKWj1oABxQKQUtAB1ooFAFAB60Cij1oAM8UUUetABQKPWgUAFFFFACCloFFABRSClFAB1oooFAAO9FFGKACjFHrQOtAB+NJSij1oAO1Ao7UlAC0CjpmigAFHaigUAAoFApMUAKKKBSUAKOOldT4c+I+seHiqrP9qtx/yymOePY9RXLCjNAHvGg/FDRPEcf2e9C2sz8FJx8rfQ9Kj174RaRraNPpr/YpW5Hlcofw/wAK8LFb/h3xxq/hpx9luWaEf8sZfmT/AOtQBL4h+Hus+HWZprYzwD/ltD8y/iOorm69x8OfGXTNUVYNUj+xynjc3MZ/Ht+NaetfDbw/4siNzbbYJnGRNbEc+5HQ0AfPdHrXaeJPhPregl3ii+32453wj5gPdf8ADNcYyMjFWBVhwQRgigBBRRSUAL60CiigAoopKAFFAFFAoAB3o7UdKPWgAo9aPXFGKAD1ooooAQUtAooAMdaSigUALX0n+wnB5nxPvH67bcfzr5sr6k/YHg3+OtUlx0hA/WgD7/zgGvyn/aUn+0fHbxs+f+Ygy/kAP6V+q+eD9K/Jb46XH2n4yeNZOudWuB+Tkf0oA4aigUlAC0UgpaAAcUUUdjQAUYooFAB60etHagCgApKXtRQAUUDmigAo/nRR60AFFHSj9KACgUUCgAoooFAB60CkpR3oABzR2oooABxTo5GikDoxVlOQRTaO1AHfAR+OPD23galbD5ff2+hrgnRkZlYFWU4II5Bq/oWsSaLqCToSVzh19RXReMtHivLZNcsQDHIB56r2PZv8aAONo60UdKACiiigAooooAPWiijFABRRSfrQAvQGjpQKPWgAoo9aBigAFem/syTeR8evBL/9RBV/MMP615lXf/ACf7P8avBMmcf8TWAfm4FAH6x96/Nv9uKHyvjzfHp5llbt/wCOkf0r9JT1P1r85/28YfL+OCtj7+lwH/x6Qf0oA+c6UUUUAFFA6GjpQAdaKOtJQAoHWigUdqACjtR2oFABQKKKAAUetAoFAB60CkpR+dABQOKKSgBetFHXNFABRRRQAUCij1oAO5oo9aBQAY60CgUUAFFAyaBQAlKO9FFAAKBRQKAAUUUlAC0CigUAFAPWjpSdqAFoHSiigAoooHNABRR0o7UAApKWgUAAooFFAB60CgUetABQKKKAAd6MUUdKACgUCigAoooFAABRQKKACtbQvFWqeHJQ9jdvEucmMnKH6isn1oHSgD2nwx8cLW4VYNZg+zscDzo/mQ/UdRXUaj4S8M+O7Xz0WGR2Hy3EDAN+Y/rXzdV7SNcv9DuBNYXUlu+f4DwfqOhoA7jxP8FNV0nfNpzDUIBzs+7IP6GvPbm1ms5mhnieGVeqSKVI/A1634W+Ozpsg1q3yvT7RCP5r/hXeSWfhj4h2OT9nvFI4ZeHT8eooA+ZBxQK9Z8TfAe6tt82jTidByIJjhvwb/GvMdS0i90e4MF9bS20o/hkXGfp60AVKKSlxxQAUUCgcUAFHeijtQAUmODS0UAFFAoFABRRQKACiij1oAK+tP2AIc+JNakx0RRXyX2r7C/4J+Q7rzX5O+5R+lAH24SdremK/In4pXH2n4l+LZc536tdH/yM1frm7bUbngCvx88ZS/aPF+uy5zvvp2z65kagDHFFAooABQKBRQACgUUCgAFFA7ikoAWiiigAFFFA70AFFFFABRigd6SgBaKP1oFABRQKOlAAOO9AoFFACClFFIKAF7UdqBRQACgdKKKACus8Ea8lvK+nXeHtZ/lAbpz2rk+tAJU5BwRzkUAbPinw+2gai0a5a2l+aF/Uen1FYwr0LR7iHxroD6dcsFvIhmOQ9j2P07GuCu7WWxuZbedCksbbWU9jQBFR60YxQO9ABQKBQKAAUUCigA60lKKKADtR60g4paAAUUUlACiuv+Ds/wBn+K/g6TONur2v/o1a5AV0Pw5m+z+P/DMucbNTtmz9JVoA/YJhlm+tfnr+39Ds+MGmyAff0mP9JJK/QlurV8Cf8FCIdnxK8Pyf39Mx+Ujf40AfLA70CiigAoFFAoAPWj6UlLQAgpcUCigA9aPeijtQACiijFABR0o6UUAHrRQKMUAAoHeiigAzR60lKO9ACUvrRmigAFAoFJQAtFA6UUAFFGKKACiigd6ACiiigAFAoFIKAFo9aBR2oAO1AFAoHSgAoFHWgUAHXNFFA70AGO1Haij1oABRQOc0UAA5ooHFA4zQAUdaB3ooAKBzRRQAUetFFABRR2ooAKKKAKAAd6BRRQAUCjpRQACgUUetABR2NJS9aACrFjqFzpk4ntJ5LeVejxtg1XooA9T8LfHW+sNkOrwi8iGB50Yw4+o6GvTrLWfDHxCsWjzb3Qb70UgAYfgeRXy9UlvcS2kqywSvFIvR0JBH40Ae0+J/gDFIHn0S5MZ6+RMdyn2B6j9a8n1zwrqvhuYx6hZyQDOBJjKH6MOK7Lwp8btX0YpFqAGo2443HiQD69/xr1nRPHfhzx1bmAyR73GGt7gAN+R60AfL9IOK+gfE/wACdM1RXn0mX7BMedg+aM/h2/CvIfEnw/1vwszm7tGaAf8ALeIbk/H0/GgDnaKBR60AAooFFAAKKBRQAUUUgoAUUdqKKACvtL/gn7Biz12X1lH8q+LcV9x/sAwbfDWry46z4zQB9Z3b+XZzN6IT+hr8dNXl8/Vb2XOd87t+bGv2B12UQaHqEvTZbyN+Sk1+Osjb3dvUk0ANFFHrQB170AFFHrQKACgUUUAA70UCigAAo60YoFABQKBRQAUUetFAAKKKKADtRRRQAUDigUCgA9aKB0NHrQAlL0zQKKADHUUUfrQKAD9aKKB3oAKKKKALelalLpN9HcxEhlPI9R6V2virS4vE2jR61YgNPGv75R1ZfX6j+Vef10/gbxKdGvxBKc2spwQein1oA5igV1HjnwwNGvBdWy5sLk5THRG7r/hXL/jQACiijpQAUUCgUAIKUCigUAFJRS0AFFIKUGgArU8KS+T4o0eT+5eQt+TisurWlSeTqdpJnG2ZG/JhQB+yynKg+oBr4U/4KIQ7fGfhSX+9Yyr+Ug/xr7ntW32kLf3o1P6V8S/8FFIca14Mk9YLlf8Ax5P8aAPj360UYooABR60UCgAxRRRQACj1oHej1oAB3ooHeigAFFAoFABRRQKACiigUAHSigdKKAD1oFAHWgUAAooooAKPWk7UvagAopKBxQAvSigUCgAoFFHSgAFAoFFAAOKQUtAoAKBRSUAKKPWiigAoFHagUAFAoAzRQAUAUY60DvQAUlLRQAUg70vrRQAUUUUAAooooASloFHrQAUUUDH1oABQKKBQAUetAooAKBRRQACgUUUAFFFAoAKPWgUUAFJRS0AApUdo2DISrDkEHBFJSUAd34U+MOueHSscsn9oWo/gnPzAezf417D4X+K/h/xYnkTOtrcNwYbjAz9D0NfMg5oHFAH0p4n+C2heI1e4sx9guG5DwYCk+69K8f8UfCXXvDJdzbm9tl/5a24JIHuvUfrUHhb4o674WZViuTdWw/5YXB3DHseor2Xwr8b9E8QBINQxp9wcDEx+Qn2b/GgD5twQSCPbBor6n8R/C7w54zjacRJFOwyLi2IVj78cH8a8g8V/AzXNBZ5bIDU7Yc/IMSAf7vf8PyoA83xRT5YJLeRo5Y3jkU4ZHXBH4GmetABQKKKACgUUCgAr7z/AGCYdngO/f8AvXDCvgyv0C/YUg8v4ZzPj787Hn60Ae9+O7gW3gjX5s/6uwnb8o2NfkFX61fF64+y/C3xdL02aVcn/wAhNX5K+tABQKPWkFABRSiigAoo60UAAoooxQACikpemaACijFFABRQKKAEFLRRQAUZoFFABQO9FFABRR+NAoAKKB3oHSgAFFFFABikpaKAD1oFAooABQKT1pfWgD0XwfqkHibR5tE1E5bb8jHr7Ee4rh9Y0mfRNRms7hcPGevZh2I9jUNjey6ddR3ELFZIzkGvSNWsofH/AIbjvbUA6lbrwo6sO6/1H/16APMKKMFSQRgjjmigApKUdDRQAUCk7UtAAO9GKBQKAD1oFA6UCgAFOhbZIjehB/Wmj6UZoA/ZTRZPO0XT5P71vG3/AI6K+O/+Ci0PHgqX3ul/9FmvrfwZL5/g/Qpc532EDf8AkNa+Vv8AgonDnQ/B8vpczr+aL/hQB8QjpSUtFABRRRQAdqBRRQAdqOooFAHWgAoFGKMUAFA5oooAMUetAooAB0ooooABRSCj1oAWgdDRRQAUUUDvQAlApaPWgAHFApBS0AHWigUAUAHrQKKPWgAzxRRR60AFAo9aBQAUUUUAIKWgUUAFFIKUUAHWiigUAA70UUYoAKMUetA60AH40lKKPWgA7UCjtSUALQKOmaKAAUdqKBQACgUCkxQAoooFJQAvSgUCjNABjrRQKKACijpQKACj1oooABRRSUAL60CiigAoopKAFFAFFAoAB3o7UdKPWgDovDPj/W/CsimxvG8kdYJPmQ/h2/CvZvCP7QOm6kq2+sxfYJjxv+9Gfx7fjXzv64oxQB9cax4O8NePrQSSRQXG4fLPEQGH0Yc15H4u/Z81LTd82jTC+hHPkyYWQfQ9D+ledeH/ABdq3hefzNNvZIOeUzlG+q9K9k8IftFQyhINetvJY4H2iIbk/EdR+tAHhl/pt3pVw1veW0ttMOqSqVP61Xr7ElsvDPxC00ErbahAw4YYOPoeoNeW+Lv2cXTfPoN1xyfs9wcj8G/x/OgDw3HWkrT1zw1qnhy4MOpWUtq2eC6/K30PQ1mCgBa/RL9iaHyvhPC396Qmvztr9If2OIfJ+D2nHH3gT+tAHcfH6f7P8FvGsmcH+yrgfmjD+tflMOK/Uf8AaauPs/wJ8ZtnG6xZPzIH9a/LgUAFFApKAFopBS0AA4ooo7GgAoxRQKAD1o9aO1AFABSUvaigAooHNFABR/Oij1oAKKOlH6UAFAooFABRRQKAD1oFJSjvQADmjtRRQADiiijtQACiiigAo60UdKACug8F+JX8PaopLH7NIdrj0965+igDuviL4ZSJhrVioNpcHMoXojnv9D/P61wtejfD3xFFf2suh6hiSKRdqhj95fSuR8V+HJfDOrSWrZaI/PDJ/fTt+PY0AY/rRRRigAoopP1oAXoDR0oFHrQAUUetAxQACgc0UUAfrz8L5/tHw28Ky5zv0u2P/kJa+cf+Ch0WfBPheX+7qLL+cTf4V798Ep/tHwf8FSZzu0i2/wDRYrw7/goPDv8AhnoMn9zVVH5xSUAfA1KKKKACigdDR0oAOtFHWkoAUDrRQKO1ABR2o7UCgAoFFFAAKPWgUCgA9aBSUo/OgAoHFFJQAvWijrmigAooooAKBRR60AHc0UetAoAMdaBQKKACigZNAoASlHeiigAFAooFAAKKKSgBaBRQKACgHrR0pO1AC0DpRRQAUUUDmgAoo6UdqAAUlLQKAAUUCigA9aBQKPWgAoFFFAAO9GKKOlABQKBRQAUUUCgAAooFFABQKPWgdKADFFFAFACUtA6UUAA4oFApKAFopKXHFABRQKBxQAUd6KO1ABSY4NLRQAUUCgUAXtI13UNBuRPp93LayDvG2AfqOhr2Dwd+0bPb7LfXrfzE6faYBz+K/wCFeI0CgD7J0/WPDPxB05hHJbX8Lj542AOPqp6VwHi/9nGyvfMn0Oc2UvXyW+aM/wBR+tfP+l3l7Y3aS2Es0NwD8rQEhv0r3HwN4t+LGoRpFZ+HJdWTgebcWzR5/wCBZAoA8g8VeC9X8HXYg1S1MO77kq8o/wBD/TrX6K/snwC3+Dmjj1jz+teM3vwi+I3xN8PS6brGg6TpKS4InknZ5I+eoUDr+NfTfwn8FL4C8Eafo3n+dJbRhWbGAx9qAOP/AGtbj7P8AfFZ/vRxJ+cqCvzJ9a/ST9tC48n4Ba6uf9ZLbJ/5GU/0r82wKAAUUCigAFAoFFAAKBRQKAAUUDuKSgBaKKKAAUUUDvQAUUUUAFGKB3pKAFoo/WgUAFFAo6UAA470CgUUAIKUUUgoAXtR2oFFAAKB0oooAKPWjrRQACgUUUAFHrRjFA70ASW9xJazpLExSRCCGHrXq0SW/wASfCvlEqmowcxsT0b0Psa8lFbPhTxFL4d1RJ1J8piBIvqPWgDKnt5LWeSGZDHLGxVlbggjtUdemfEXw5Hq1gniHT1DHaPtKqOo7P8Ah3/+tXmdAB1pKUUUAHaj1pBxS0AAoopKAFFGaBRQB+rX7O03n/A3wO3/AFC4V/IY/pXlX7fUG/4QWL/889UiP5pIK9H/AGXpvO+Afgs+llt/J2H9K4b9u2HzPggzf889Rt2/9CH9aAPzsHegUUUAFAooFAB60fSkpaAEFLigUUAHrR70UdqAAUUUYoAKOlHSigA9aKBRigAFA70UUAGaPWkpR3oASl9aM0UAAoFApKAFooHSigAooxRQAUUUDvQAUUUUAAoFApBQAtHrQKO1AB2oAoFA6UAFAo60CgA65oooHegAx2o7UUetAAKKBzmigAHNFA4oHGaACjrQO9FABQOaKKACj1oooAKKO1FABRRQBQADvQKKKACgUdKKAAUCij1oAKOxpKXrQAUUUUAAo9aKBQAUCigUAFIOKWrmnaNqGrSbLGxuLx/7sETOf0FAFOivTfDn7NfxE8Slfs/hye3jb/lpdkRD8jz+lep+G/2DPFF9sfV9YtLBT95IUMjfmcUAfL4or7z8NfsIeEdO2tqt9eao46qX8tT+CgV6r4d/Z78BeF9rWXhyzDrj95JGHb8zQB+aOjeCdf8AEEippujX16W6GKBiPzxivSfDn7JfxG8QBWbSk06Nv4ruUAj8Bk1+j1npFjYLtt7aKJRxhUAxVsALwBxQB8U+G/2Bb+YLJrfiFIgesdpFyPxP+Fep+HP2KPAOj7Wu4Z9UkA5+0SnH5DAr6BOBnJwPeub8Q/Efwt4TRm1nxDpunY/hnulVvyzmgCl4e+EvhHwuoGnaFZW5X+JYRn866mCzggXbHEkYHTauK8O8Sfto/DXQRIlpe3mtTL/DZWxCn/gT7RXlXiX/AIKA3Um5NA8KxxD+GbUbgsf++Ex/6FQB9khQM9hUc15DYoZZp0gjXq8jBQPxNfnL4k/a9+J3iEOq62mkxN/Bp0Cx/wDjxy3615frnjDXfEsjSatrN9qTHn/Srh5P0JoA+xv21fjR4b1XwBH4U0rU7bVNSubqOScWsgkWFEJPzEcZJxx1618RUDpRQACij1oA696ACij1oFABQKKKAAd6KBRQAAUdaMUCgAoFAooAKKPWigAFFFFAB2ooooAKBxQKBQAetFA6Gj1oASl6ZoFFABjqKKP1oFAB+tFFA70AFFFFABRjiijFABQKBR+NAAKKKOlAHoXwx8WC2lbSrxg1vLwgfkc9RWL4/wDCJ8MaruhBOn3GWgb+76qT7fyrmI5GidXRirKcgjsa9g8O31r8QvC0ul3rAXSAAP3Vh0YUAeOilAq3qul3GjahPZXSbJoW2kdj6Eex61UFABSUUtABRSClBoAKKKKAP09/ZHn879n3wmf7scqflK9YX7b8Il+Ampt/zzurZv8AyIB/Wrv7GE3nfs9+H++yW5T/AMjNS/tmQ+d+z/4h/wBl7dv/ACMtAH5o/WijFFAAKPWigUAGKKKKAAUetA70etAAO9FA70UAAooFAoAKKKBQAUUUCgA6UUDpRQAetAoA60CgAFFFFABR60nal7UAFFJQOKAF6UUCgUAFAoo6UAAoFAooABxSCloFABQKKSgBRR60UUAFAo7UCgAoFAGaKACgCjHWgd6ACkpaKACkHel9aKACiiigAFFFFACUtAo9aACiigY+tAAKBRQKACj1oFFABQKKKAAUCilVSxAUEk8YAoASiuj0L4b+KfErBdM0DULvPRkgYL+ZGK9P8Nfsa/EfXtjTWEGlxt/Fcy5YfguaAPDaPWvsnwz/AME+HbY+ueI2P96OziC/qc16x4Z/Ys+HWhBTcafJqcg6m7lLA/h0oA/OK3tpruQRwRPM56LGpYn8BXZ+Hfgl458UFf7P8NXzI3SSWPy1/NsV+nmgfDDwt4ZiCabolnaAcDyoVH9K6OO3hhXEcaoB6DFAH55+Gv2G/Hur7Wv5rLSoz13MZGH4AY/WvVvDX/BP/RoNr61rt1eHukCiNf6n9a+usCmO6xKWdgijqWOBQB494Z/ZQ+HHhsIU0GG7lX+O6zIf/Hs16RpfhHRtEjEdlptvbIvAEcYAH5VieJvjV4E8Ibhq3irS7WResQuFeT/vhcn9K8l8Tft2fDzR9y6ZFqWuyDgGCDykP4uQf0oA+iVjRBgKB9BTTyDivh/xN/wUF1+63poPhmx09T92W9ladvyG0fzryfxL+1R8TvFG9ZvE89lE3/LLT0WAD8VG79aAP0r1HWLDR4DNf3tvZRDkvcSqg/U15p4l/al+GPhkOJ/FFteSLx5enq1wSfTKggfnX5p6nreoa3MZtRv7m/mPWS5maRvzYmqY70AfcPiX9v8A8P2gdNC8N3+osOkl5KsCn8BuNeUeJf26PiBq+9dNg03RIz0MUJlkH4uSP0r51FHrQB2niT41eO/Fhb+1fFWp3CN1jW4MaH/gKYH6VxjOzsWclmPUk5JpKKACgUUCgAoA60UUAFFJS+tABQKPWkFABRSiigAoo60UAAoooxQACikpemaACijFFABRQKKAEFLRRQAUZoFFABQO9FFABRR+NAoAKKB3oHSgAFFFFABikpaKAD1oFAooABQKT1pfWgAooHFA5oAKKBRQAVpeHtbm0DU47qInAOGUfxCs0dDRQB6/410KHxv4di1rTgHvoUyyr1kTuPqO3415BXc/DHxgdF1AWVw/+izHC56Kal+KfgxdHvF1WxX/AEC7bLBekbnt9D1H40AcCO9GKBQKAD1oFA6UCgAFFA+lFAH6P/sPy+b8AtPT/nne3K/+RM/1rc/a2h874A+KxjO2KNvylQ1yv7B8vmfA90z/AKvUpx+YQ/1ruP2oIfP+A3jIelkW/Jgf6UAflsOlJS0UAFFFFAB2oFFFAB2o6igUAdaACgUYoxQAUDmiigAxR60CigAHSiiigAFFIKPWgBaB0NFFABRRQO9ACUClo9aAAcUCkFLQAdaKBQBQAetAoo9aADPFFFHrQAUCj1oFABRRRQAgpaBRQAUUgpRQAdaKKBQADvRRRigAoxR60DrQAfjSUoo9aADtQKO1JQAtAo6ZooABR2ooFAAKBU9lp11qEnl2ttNcueiwxlz+QrvPDn7PfxB8UFPsfhm8RG/5aXK+Uv8A49g0AeeCivpnwx+wV411Xa2qX9lpaHqFzKw/kK9a8M/8E+vDdntfWdXvdQbuiERL+gz+tAHwZ0rT0jwxq+uyBNN0y7vmbp9ngZ/5Cv058Mfst/Dnwxta38PWssq/8tLhfMb82zXo2neGtK0mMJaWMECjoEjAxQB+ZHhr9lX4k+JdrR6C9lG38d44T9OTXq/hn/gn3r12UfWtegs0PWO2iLn8zj+VfeKxqg4UD6CloA+ZvDP7B/gbStj6jJd6rIOvnS7VP4LivVvDXwG8DeFQv9n+HbKJl6P5ILfmea725u4LKJpLieOCNRkvI4UD8TXnfif9o34a+Et63/i/TmlTrDayfaH/AO+UzQB3lrpdpZqFht44lHQKoFWNoGcCvl/xN/wUC8FabvTRtI1TWXH3XdVt4z+JJb/x2vJPE/8AwUC8aajvTRdG0zRoz0aTdcSD8SVH6UAfffrWPrnjDQvDMLS6xrNjpkQGS11cJGP1NfmD4m/aO+JXizet/wCL9RWNv+WVo4t1x6Yjx+teeXV5cX0zTXM8lzK3WSVyzH8TQB+lnif9sX4W+G96LrratMv8GmwNKD/wLhf1ryXxN/wUNs496eH/AAlPOe0uo3AjH12oG/nXxRRQB774m/bd+JuvB0tLyy0OI9BY2wLAf7zlq8o8RfE7xb4tZjrPiTU9QDdUmunKf985x+lczSUAL1oAooFAAO9HajpR60AFHrR64oxQAetFFFACCloFFABjrSUUCgBaPWigUAFA4ooFABRQKSgBaKQUtAAOKKKOxoAKMUUCgA9aPWjtQBQAUlL2ooAKKBzRQAUfzoo9aACijpR+lABQKKBQAUUUCgA9aBSUo70AA5o7UUUAA4ooo7UAAooooAKOtFHSgAooooAKKKKAD1oooxQAAlSCDgjkEV7J8P8AX7XxfoU+h6piRtmwg9SOzD3FeN1c0fVZtG1CK7gbDxnPHcdxQBa8U+HLjwtrE9hOCdpzHJjiROxFZPSvcdZ022+KHhCO4tNv9pQLuiPcnuh+v868QkjeKR43Uo6naysMEEdQaAG0UetAxQACgc0UUAfoF+wDP5nwi1SP/nnq0n6xxmvU/wBomLz/AII+NV9NMmP5KT/SvHf+Ce0274beJIs/c1XP5xJ/hXuHxvi+0fCDxknXOlXP/otqAPybpRRRQAUUDoaOlAB1oo60lACgdaKBR2oAKO1HagUAFAoooABR60CgUAHrQKSlH50AFA4opKAF60Udc0UAFFFFABQKKPWgA7mij1oFABjrQKBRQAUUDJoFACUo70UUAAoFFAoABRRSUALQKKBQAUA9aOlJ2oAWgdKKKACiigc0AFFAFbei+CPEHiFwmmaLfXxPQw27EfnjFAGIKSvaPDP7IfxK8R7CdHXTom/ivJQpH4DJr1rwv/wTz1O42trniFYQeqWkXT8W/wAKAPj4U6ON5WCohdjwFUZJr9GvC37CfgDRtr30Vxqsg6/aZTj8hgV6z4c+CngzwqqjTdAsrcr0ZYVz+eKAPy48P/CPxl4oI/szw3qFwrdHMJRfzbAr1Lwx+xH8RdcKtdRWmlRnvNIWYfgB/Wv0lt9OtbVdsUEaAf3VqcDA44oA+LvDH/BPG2XY+ueIZ5v70drGIx+Zya9a8MfsZfDfw7tZ9IGoSLg77tzJ+h4r3eqOp63p2iwNNqF9bWMK8mS5lWMD8SaAMjRPh34c8PRhNP0i0tVHTyolX+QreitoohhI1UD0FeUeKP2sPhZ4VDifxXbXsq/8s9OVrk59MoCP1ryLxP8A8FEvDtnvTQPDF/qLj7sl7KkCH8BuP8qAPrcikJwCc4FfnZ4n/b4+Ims700uDTNCiPQwwmWQf8Cckf+O15H4m+OPj/wAYFv7W8W6rco3WJLhooz/wBMD9KAP1J8SfE7wj4QRm1rxJpmm4/huLpFY/Rc5NeSeJ/wBuL4YaBvW0vb3XJV422FqdpP8AvPtH5V+bTu0jFnYsx6knJNIKAPsrxP8A8FFLqTenh3wjFEP4ZtSuS5/FEA/9CryPxP8AtmfFPxJuVddj0iJv+Wem26x/+PHLfrXiIooA2Ne8Za94okMmsa1qGqMTn/TLl5P0JrHFHrQOlABiiigCgBKWgdKKAAcUCgUlAC0UlLjigAooFA4oAKO9FHagApMcGlooAKKBQKACiigUAFFFHrQAUdKO1HWgAo9aKAKAAUUCigAFAoFFAAKBRQKAAUUDuKSgBaKKKAAUUUDvQAUUUUAFGKB3pKAFoo/WgUAFFAo6UAA470CgUUAIKUUUgoAXtR2oFFAAKB0oooAKPWjrRQACgUUUAFHrRjFA70AFAoFAoABRQKKADrSUoooA6/4ceMH8NasscjH7JMwDAnhT6103xd8GpJGPEmnIDDLj7Uqfwns/49DXlI4r2P4T+MI9Ts5ND1IiVShQLJyHQ8YoA8dFFdP8QfBsng7W3hAL2U2ZLaX1X+6fcf4etcvQAoozQKKAPuX/AIJ4TZ8H+Lof7t/E2PrHj+lfRfxUg+0fDXxRF13aZcD/AMhtXzN/wTtmzpXjWLPSa2f9HH9K+pfHMXn+DNdj/v2Uy/8AjjUAfkGO9AoooAKBRQKAD1o+lJS0AIKXFAooAPWj3oo7UAAoooxQAUdKOlFAB60UCjFAAKB3oooAM0etJSjvQAlL60ZooABQKBSUALRQOlFABRRiigAoooHegAooooABQKBSCgBaPWgU5I3kOEUs3oozQG+w3tQBXb+Gvgl448WbDp3hq+ljfpLJH5a/m2K9W8L/ALCnj/W9rX0lnpUZ67mMjD8AMfrQB85UCvurwv8A8E7tLh2PreuXV2erRwgRr/U/rXrvhb9j34b+GgjDRIryVf47rMp/8eoA/MTTtF1DV5NljY3N45OAsETOf0Feh+G/2aPiN4n2m28OXFujfx3ZEQ/I8/pX6kaP4E0HQo1jsdNt7dV6COMD+Qrajt44lwiKo9hQB+evhf8A4J/eLNS2Nq+rWunoeqQoZGH4nAr1zwv/AME/PCWnhH1a+vdTcdVL7F/JR/WvrHp0pPXNAHlfhj9mf4feFcGz8O2fmL/y0kjDt+ZzXoNl4e03TkCW1pFEo6BUAqDXvGegeF4Wm1jWrDTIxyWu7lI/5mvJ/FH7Z/wp8MiRU19tXmX/AJZ6bA0oP0bhf1oA9uWNV6AD6CivjHxT/wAFHLOPcnh3whNP6TalciMfXagP868h8Uft0fFHXw6Wl7ZaFEegsLUFgP8AectQB+lLyJEpZ2CKOpY4FcT4o+OHgHwdvGr+LdKtZF6wi4V5P++Fyf0r8sPEnxR8X+L2c614m1TUQ3WOa6cp/wB85x+lcx1z3oA/RjxR+338OdF3ppcOp69IOhgt/KjJ+shB/SvIfFH/AAUV8RXe9PD/AIYsNOXoJb2Vp2/IbR/OvkWigD13xR+1l8U/Fe9Z/FVxYwt/yy05FtwPxUbv1ry/Vdc1LXbgz6lqF1qEx/5aXUzSN+bE1SooAKKO1FABRRQBQADvQKKKACgUdKKAAUCij1oAKOxpKXrQAUUUUAAo9aKBQAUCigUAFIOKWgd6ACigUetAAKKBRQACigUUAFFFIKAFFHaiigAooxR60AFFA6UUAAoo9aAOvegAoo9aBQAUCiigAHeigUUAAFHWjFAoAKBQKKACij1ooABRRRQAdqKKKACgcUCgUAHrRQOho9aAEpemaBRQAY6iij9aBQAfrRRQO9ABRRRQAUY4ooxQAUCgUfjQACiijpQAUUCgUAIKUCigUAFT2F9Npt3FcwMUkjYMCKr0tAHv9uLL4seCzbSOI7tBmNz1jkH9PX2NeEajp8+lXs9ndRmK4hYo6HsRW74C8Wy+FtYjk3H7M5AkXsPevSPir4Ri8T6MniTTF8y5hjHnqn/LSP1+o/l9KAPEqKKKAPsf/gnZP/pPjeHP8Fo/6yCvsHX4/O0HUU/vW7r+amvjD/gnfLt8R+M4v71pbt+Tv/jX2tqC77C5X+9Gw/Q0Afji42uwPY4pKsajH5WoXSf3ZWH5E1XoABR60UCgAxRRRQACj1oHej1oAB3ooHeigAFFAoFABRRQKACiigUAHSigdKKAD1oFAHWgUAAooooAKPWk7UvagAopKBxQAvSitLSfDOr67IE07TLu+Y8D7PCz/wAhXpHhn9lf4k+JSpi0B7OM/wAd44Tj6cmgDyWgV9a+Ff8Agnr4jv8Aa+s6zDZoeqW0RY/mcfyr17wp/wAE/fBmllH1Oe61SQdfNl2qfwUCgD87FBY4ALH0FdHoXw48U+JWC6ZoGoXmejJbsF/M8V+p3hf9nLwH4TCmx8P2Ubj+PyQW/M813tpoGn2ChYLWKMDphRQB+Yvhj9jL4k+IdjS6fBpkTdWuZckfgoNet+Fv+CddzJsfXPELDuY7SIL+rZ/lX3YqKgwqgD2paAPnHwt+wx8PND2tdWT6nIMZN3IWB/DpXa+JPgT4RsPBGp2emaHZ2reQ3ltFCqlTg4PSvWCQoySAPU1yHjH4neDvCllOmueJdL07KEbJ7pAx+i5yfyqJx54uL6nRh6roVoVV9lp/cyp8HZYNQ+H+kTCFFkEKq4x0YcEfmK7cDA4GK+PvBn7aHgD4d6Hf6fJLqGrvHdzG3Wzg4aMuSvzOVHQiua8U/wDBSG9k8yPw54QhhH8M+pXJc/iiAf8AoVZYbm9jHm3sdmaKmsdW9k048zattZ6n3N61BdXtvYxNLc3EdvEvJeVwoH4mvzA8U/tpfFfxNvVdfj0eFv8Alnplusf/AI8dzfrXkuveMtf8UytJrOtahqrk5zeXTy/+hE4roPLP1R8U/tL/AAy8IeYNQ8Yac0qdYbST7Q/5R5NeP+KP+Ch/gnTfMTRNG1TWpB92SRVt4z+JJb/x2vz2AzRQB9VeKP8Agod431PemiaNpeixngNIGuJB+JKj9K8g8UftKfE3xfvGoeMdRWJv+WVpILdfpiPb+teaY60DvQBLdXlxfTNNczyXErdZJXLMfxNQ0tFABSDvS+tFABRRRQACiiigBKWgUetABRRQMfWgAFAooFABR60CigAoFFFAAKBRRQAUUUCgAo9aBRQAUlFLQACiikoABS0DmigAooooABRR2oHegAxRQKPWgAoFFFABQKKBQAUAdaKKACikpfWgAoFHrSCgAopRRQAUUdaKAAUUUYoABRSUvTNABRRiigAooFFACCloooAKM0CigAoHeiigAoo/GgUAFFA70DpQACiiigAxSUtFAB60CgUUAAoFJ60vrQAUUDigc0AFFAooAKSlHQ0UAFApO1LQADvRigUCgA9a9b+DXjv7PIdHvXBRh+6LdMeleSDpUltO9rOk0TFJEIZWHY0Adz8WfAf/AAiurfbbND/ZV4S0eOkT9Sn07j/61cFX0L4R1ex+JnhCbS9QAMhUI/qjDow98814b4k8P3XhfWbnTbxcSwtww6OvZh7EUAfTP/BPaXZ488URf3tORsfSQf419zXA3W8o9VNfBf8AwT/m2fFTWYs/f0pj+Uif4197Scxv7igD8fPEkXk+IdVj6bLuVcfR2rNrd8dxeR438RRf3NRuFx9JWrDoAKKKKADtQKKKADtR1FAoA60AFAoxRigAoHNFFABij1oFFAAOlFFFAAKKWONpXCIpdj0CjJrqtA+E/jDxOwGmeHNQuVY8P5BVfzbAoA5SgdDXv3hf9iX4ja+VNzb22lxt3nkLMPwUf1r1/wAK/wDBObdsfW9emk7tHbRiMH8Tk0AfEVT2lhc38nl21vLcOeixIWP5Cv038K/sO/Dvw+FabTRfyDndduZP0PFesaB8JfC/htAlhpFrbhf+ecSr/IUAflV4b/Z/+IHigr9i8M3io3SS4Xyl/wDHsV6x4V/YJ8c6xtbUbq001D1CgyN/QV+kcGm2tquIoEXHotWAAMgUAfGfhb/gnZoVqVfWdWvL090UiNf0Gf1r2Dwr+yN8OvC+xotBtppV/wCWk6+YfzbNe1jjimSzRwoWkdUUdSxwKAMXS/A+iaRGEtdPghVeAEQAfpWvHbRQjCRquPQVw/ir49fD3wZvXV/F2lW0qdYVuFkk/wC+Fyf0rx3xT/wUH+G+jb00m31TX5B0MEAhjJ+shB/SgD6dPGaSvgHxV/wUf8S3m9PD/hfT9NX+GW9ladvrgbR/OvHvFX7W/wAVvFnmLceLLiyhb/llpyrbgfQqN360Afqhqmv6Zodu02paha2EK8l7mZYwPxJryvxV+138KPCm9Z/Fdvfyrx5emq1ySfTKAj9a/LDVNc1LXZzPqWoXWoTnrJdTNIx/FiapetAH314q/wCCj/h203p4f8LX+pOPuyXsq26H8BuP8q8e8U/8FAviTrW9NMh0vQYj0MEBlkH/AAJyR/47XzN60CgDufFHxz+IHjEv/a/i/VbpG6xLcNFH/wB8JgfpXDu7SMzOxZjyWJyTSUUAIKWgUUAFFIKUUAHWiigUAA70UUYoAKMUetA60AH40lKKPWgA7UCjtSUALQKOmaKAAUdqKBQACgUCkxQAoooFJQAvSgUCjNABjrRQKKACijpQKACj1oooABRRSUAL60CiigAoopKAFFAFFAoAB3o7UdKPWgAo9aPXFGKAD1ooooAQUtAooAMdaSigUALR60UCgAoHFFAoAKKBSUALRSCloABxRRR2NABRiigUAHrR60dqAKACkpe1FABRQOaKACj+dFHrQAUUdKP0oAKBRQKACiigUAHrQKSlHegAHNHaiigAHFFFHagAFFFFABR1oo6UAFFFFABRRRQAetFFGKACiik/WgBegNHSgUetABRR60DFAG54O8TTeF9Ziu42Pl5xIo7ivafHvhi3+JXhOLVNOCvqdtHvj29ZU6lP6j3+tfPVenfB74gDQ7wadeShbaQ/u2c8KfSgD0H9gyVoPjXdREEFtKnBB9njr9Bm+430r4/+BXgyPR/2gbPX9PULY6jZXCTIvRZCA2R7Hb+f1r6/P3WoA/JP4qw+R8TPFsf93Vbr/wBGtXLiu3+OEXkfGDxknT/ia3Bx9XJriKACigdDR0oAOtFHWkoAUDrRQKt6fpF9qjiOys7i7c/wwRM5/QUAVKO1eleHP2cPiH4nK/ZfDdxCjdHucRD9ef0r1rwr+wB4x1Yo2p6hbWCH7yxI0jD8eBQB8t0Cv0G8J/8ABOzw5Z7H1e/u9QbglWk8tfyUZ/WvY/Cv7J3w98LhWg0K0Mg/jePeT+LUAfldo3gzXvELqmmaPe3pbp5MDMPzxivS/DP7JPxJ8SbSNGFgjfxXcgXH4DNfqfpvgrRtKjCW1jFGo6AKB/KtaK1ihGI4kXHoKAPz48Kf8E7davdr6zriwKeqWsOf1b/CvYfCn/BP/wAD6SUfUFn1Jx1+0SnB/AYFfVWKKAPNfDP7Pfgjwqqix0KzhK9GWFQfzxmu4s/D+nWKgQ2saAdPlqzeajaadC0t1cxW8SjJeVwoH4mvM/Ff7UXwt8H+Yt/4x06SVOsNm/2iQH02x5NAHqKRqgwqhfYClr5J8V/8FHfBOm+YmhaHqmtSD7skoW3jP4klv/Ha8b8V/wDBRnx3qu9NE0fStDjPAZw1xIPxJUfpQB+jJ46nisHxB468O+FIGm1nXNP0uMdWurlI/wCZr8ofFf7S/wATvGJcaj4y1JYm/wCWVpJ9nT6Yjxn8a85ury4vpmmuZ5LiVuTJK5Zj9SaAP1G8V/tu/Cbwx5iR67JrE6/8s9Nt2kB/4GcL+teO+Kv+ClNqm9PDng+ab+7NqVyI/wAdiA/zr4Vo9aAPofxV+3f8VfERdLS/stCiPQafagtj/ect+mK8g8S/FHxh4wd21vxNqmohuqT3blP++c4H5Vy/rQKAD1oFAooAKKBk0CgBKUd6KKAAUCigUAAoopKAFoFFAoAKAetHSk7UALQOlFFABRRQOaACijpR2oABSUtAoABRQKKAD1oFAo9aACgUUUAA70Yoo6UAFAoFFABRRQKAACigUUAFAo9aB0oAMUUUAUAJS0DpRQADigUCkoAWikpccUAFFAoHFABR3oo7UAFJjg0tFABRQKBQAUUUCgAooo9aACjpR2o60AFHrRQBQACigUUAAoFAooABQKKBQACigdxSUALRRRQACiigd6ACiiigAoxQO9JQAtFH60CgAooFHSgAHHegUCigBBSiikFAC9qO1AooABQOlFFABR60daKAAUCiigAo9aMYoHegAoFAoFAAKKBRQAdaSlFFAB2o9aQcUtAAKKKSgBRRmgUUAfSX7F/jvUn+KmlaBcym4s3jmaIyHLRkRk4B9Pav0Cxw2PSvzO/ZAn8j9oHwvz98zJ+cL1+mQHagD8rv2h4fI+N3jROn/Ewkb8+f6152K/QHx7+wx/wsT4jat4km1meG11GUTGCKJQVOACNx+npXWeFf2B/AujBWvLZ9QkHU3MhbP4DigD81oLeW5fZDG8rnoqKWP6V1/h/4N+NvExX+z/Dd/KrdHeIxr+bYr9WfDfwG8HeGEC2OjWsJA4McKj+ldnaeH9PslxDaxrj/AGaAPzI8K/sN/EHXSjXYtdMRv7zGRh+AH9a9h8K/8E5bYFH1rWbm46ExxKIl/qa+5o41jXCqFH+yKdQB89eE/wBiX4eeHdjvpMV3Kv8AHcEyn9a9X0P4V+GvD8YSz0yCEL0CRqo/QV1341m6v4l0nQLd59S1O1sIV5MlzMqAfiTQBYt9MtbUYigjXHotWAMDjivF/Ff7Y3wl8Jh1l8V2+oSrx5Wmq1wc+mVBH614z4r/AOClegWodPDvhS+1Bx0kvplgQ/gu4/yoA+zqazqgJZgoHcnFfmd4s/4KE/EzXd6aYmmaBEeht4DLIP8AgTkj/wAdrxzxR8dPiD4zL/2x4v1a6RusS3LRxn/gCYH6UAfrR4o+LvgrwYrHXPFGl6aV/gnukD/gucmvG/Ff7fnwr8PB0sbq+1+Vf4bG1IU/8CfaPyr8w3dnYszFmPJYnJNJQB9s+K/+ClmoS+ZH4b8IQW4/hm1K5Ln8UQD/ANCrxrxV+2v8WvFG9B4hXSIW/wCWemW6xY/4Ect+teFijFAGxr3jLX/FMpk1nW9Q1Vyc5vLp5f8A0Imscd6KKADNHrSUo70AJS+tGaKAAUCgUlAC0UDpRQAUUYooAKKKB3oAKKKKAAUCgUgoAWj1oFHagA7UAUCgdKACgUdaBQAdc0UUDvQAY7UdqKPWgAFFA5zRQADmigcUDjNABR1oHeigAoHNFFABR60UUAFFHaigAoooAoAB3oFFFABQKOlFAAKBRR60AFHY0lL1oAKKKKAAUetFAoAKBRQKACkHFLQO9ABRQKPWgAFFAooABRQKKACiikFACijtRRQAUUYo9aACigdKKAAUUetAHXvQAUUetAoAKBRRQADvRQKKAACjrRigUAFAoFFABRR60UAAooooAO1FFFABQOKBQKAD1ooHQ0etACUvTNAooAMdRRR+tAoAP1oooHegAooooAKMcUUYoAKBQKPxoABRRR0oAKKBQKAEFKBRQKACkopaACikFKDQAUUUUAeq/ssT+R8fPBx6ZumX843FfqdpNkbuYEj5R1r8i/hD4stvA3xK8O6/ebvstjdrLLsGTt5BwPxr9Cn/AG6vhLoelLNFqd5qFwwz9nt7KQOPYlgAPzoA+lY0EaBQMAU4V8N+K/8AgpfCu9PDfg6ST+7NqdyE/HYgP868a8V/t4/FfxHvW11Kz0KI9F0+1G4D/efd/SgD9RZriK3UtLKkSjqWOBXA+Kv2g/hz4L8xdX8X6XBKnWFLgSSf98Lk/pX5MeJfih4u8YOza34m1TUw3VLi7dk/75zj9K5gUAfpV4q/4KJfDjRd6aRa6pr0g4DQwCGMn6uQf0rxrxX/AMFKPFN9vj8PeGdO0tOiyXkjXDfXA2gfrXx1RQB7B4r/AGuPix4u8xbnxddWcL/8sdPVbcD6FRu/WvK9U1vUdcuGn1K/utQnPWS6maRj+LE1THej1oAB3ooHeigAFFAoFABRRQKACiigUAHSigdKKAD1oFAHWgUAAooooAKPWk7UvagAopKBxQAvSigUCgAoFFHSgAFAoFFAAOKQUtAoAKBRSUAKKPWiigAoFHagUAFAoAzRQAUAUY60DvQAUlLRQAUg70vrRQAUUUUAAooooASloFHrQAUUUDH1oABQKKBQAUetAooAKBRRQACgUUUAFFFAoAKPWgUUAFJRS0AAoopKAAUtA5ooAKKKKAAUUdqB3oAMUUCj1oAKBRRQAUCigUAFAHWiigAopKX1oAKBR60goAKKUUUAFFHWigAFFFGKAAUUlL0zQAUUYooAKKBRQAgpaKKACjNAooAKB3oooAKKPxoFABRQO9A6UAAooooAMUlLRQAetAoFFAAKBSetL60AFFA4oHNABRQKKACkpR0NFABQKTtS0AA70YoFAoAPWgUDpQKAAUUD6UUAGKOlFHY0AA6UlLRQAUUUUAHagUUUAHajqKBQB1oAKBRijFABQOaKKADFHrQKKAAdKKKKAAUUgo9aAFoHQ0UUAFFFA70AJQKWj1oABxQKQUtAB1ooFAFAB60Cij1oAM8UUUetABQKPWgUAFFFFACCloFFABRSClFAB1oooFAAO9FFGKACjFHrQOtAB+NJSij1oAO1Ao7UlAC0CjpmigAFHaigUAAoFApMUAKKKBSUAL0oFAozQAY60UCigAoo6UCgAo9aKKAAUUUlAC+tAoooAKKKSgBRQBRQKAAd6O1HSj1oAKPWj1xRigA9aKKKAEFLQKKADHWkooFAC0etFAoAKBxRQKACigUlAC0UgpaAAcUUUdjQAUYooFAB60etHagCgApKXtRQAUUDmigAo/nRR60AFFHSj9KACgUUCgAoooFAB60CkpR3oABzR2oooABxRRR2oABRRRQAUdaKOlABRRRQAUUUUAHrRRRigAoopP1oAXoDR0oFHrQAUUetAxQACgc0UUAFFFAoASlFFFABRQOho6UAHWijrSUAKB1ooFHagAo7UdqBQAUCiigAFHrQKBQAetApKUfnQAUDiikoAXrRR1zRQAUUUUAFAoo9aADuaKPWgUAGOtAoFFABRQMmgUAJSjvRRQACgUUCgAFFFJQAtAooFABQD1o6UnagBaB0oooAKKKBzQAUUdKO1AAKSloFAAKKBRQAetAoFHrQAUCiigAHejFFHSgAoFAooAKKKBQAAUUCigAoFHrQOlABiiigCgBKWgdKKAAcUCgUlAC0UlLjigAooFA4oAKO9FHagApMcGlooAKKBQKACiigUAFFFHrQAUdKO1HWgAo9aKAKAAUUCigAFAoFFAAKBRQKAAUUDuKSgBaKKKAAUUUDvQAUUUUAFGKB3pKAFoo/WgUAFFAo6UAA470CgUUAIKUUUgoAXtR2oFFAAKB0oooAKPWjrRQACgUUUAFHrRjFA70AFAoFAoABRQKKADrSUoooAO1HrSDiloABRRSUAKKM0CigAFFAoFAAO9AoooAKBRQKAD1o+lJS0AIKXFAooAPWj3oo7UAAoooxQAUdKOlFAB60UCjFAAKB3oooAM0etJSjvQAlL60ZooABQKBSUALRQOlFABRRiigAoooHegAooooABQKBSCgBaPWgUdqADtQBQKB0oAKBR1oFAB1zRRQO9ABjtR2oo9aAAUUDnNFAAOaKBxQOM0AFHWgd6KACgc0UUAFHrRRQAUUdqKACiigCgAHegUUUAFAo6UUAAoFFHrQAUdjSUvWgAooooABR60UCgAoFFAoAKQcUtA70AFFAo9aAAUUCigAFFAooAKKKQUAKKO1FFABRRij1oAKKB0ooABRR60Ade9ABRR60CgAoFFFAAO9FAooAAKOtGKBQAUCgUUAFFHrRQACiiigA7UUUUAFA4oFAoAPWigdDR60AJS9M0CigAx1FFH60CgA/Wiigd6ACiiigAoxxRRigAoFAo/GgAFFFHSgAooFAoAQUoFFAoAKSiloAKKQUoNABRRRQAUUdqPWgA+tFGKKAAUetFAoAMUUUUAAo9aB3o9aAAd6KB3ooABRQKBQAUUUCgAoooFAB0ooHSigA9aBQB1oFAAKKKKACj1pO1L2oAKKSgcUAL0ooFAoAKBRR0oABQKBRQADikFLQKACgUUlACij1oooAKBR2oFABQKAM0UAFAFGOtA70AFJS0UAFIO9L60UAFFFFAAKKKKAEpaBR60AFFFAx9aAAUCigUAFHrQKKACgUUUAAoFFFABRRQKACj1oFFABSUUtAAKKKSgAFLQOaKACiiigAFFHagd6ADFFAo9aACgUUUAFAooFABQB1oooAKKSl9aACgUetIKACilFFABRR1ooABRRRigAFFJS9M0AFFGKKACigUUAIKWiigAozRRQAUDvRRQAUUUUAFFFFAAKKKKADFJRRQAvrQKKKAAUCiigAooooAKKKKACkoooAWgUUUAA70YoooAPWgUUUAAooooAMUdKKKAAdKSiigBaKKKADtQKKKADtR1FFFABQKKKACgc0UUAGKPWiigAHSiiigAFFFFABQOhoooAKKKKAEoFFFACjigUUUAHWiiigA9aBRRQAZ4ooooAKBRRQAUUUUAIKWiigAooooAOtFFFAAO9FFFABRiiigA/GkoooAXtQKKKACgUUUAAo7UUUAAoFFFAAKKKKADpQKKKADHWiiigAooooAKPWiigAFFFFAB60CiigAooooABQBRRQADvR2oooAKPWiigA9aKKKAEFLRRQAY60lFFAC0etFFABQOKKKACiiigAooooABxRRRQAUYoooAPWj1oooAKSiigBaKKKAP/Z;" vertex="1" parent="1">
          <mxGeometry y="870" width="320" height="320" as="geometry" />
        </mxCell>
        <mxCell id="RCYnNcVBV2A_GnD5C0OR-5" style="edgeStyle=none;curved=1;rounded=0;orthogonalLoop=1;jettySize=auto;html=1;fontSize=12;startSize=8;endSize=8;" edge="1" parent="1" source="RCYnNcVBV2A_GnD5C0OR-4" target="RCYnNcVBV2A_GnD5C0OR-6">
          <mxGeometry relative="1" as="geometry">
            <mxPoint x="705" y="750.0000000000002" as="targetPoint" />
          </mxGeometry>
        </mxCell>
        <mxCell id="RCYnNcVBV2A_GnD5C0OR-4" value="&lt;font style=&quot;font-size: 25px;&quot;&gt;Find Red Pixels&lt;/font&gt;" style="shape=parallelogram;perimeter=parallelogramPerimeter;whiteSpace=wrap;html=1;fixedSize=1;" vertex="1" parent="1">
          <mxGeometry x="365" y="689" width="160" height="122" as="geometry" />
        </mxCell>
        <mxCell id="RCYnNcVBV2A_GnD5C0OR-6" value="&lt;font style=&quot;font-size: 25px;&quot;&gt;Red Pixel Map&lt;/font&gt;" style="rounded=0;whiteSpace=wrap;html=1;" vertex="1" parent="1">
          <mxGeometry x="645" y="705" width="150" height="90" as="geometry" />
        </mxCell>
      </root>
    </mxGraphModel>
  </diagram>
</mxfile>
